<svg width="256" height="291" viewBox="0 0 256 291" fill="none" xmlns="http://www.w3.org/2000/svg">
<path d="M256.582 28.7036C295.126 69.6389 311.079 136.056 294.248 189.169C277.417 242.283 227.992 282.1 181.647 289.431C135.302 296.762 92.1584 271.648 56.0589 248.02C19.9595 224.391 -9.00388 202.312 -31.0605 162.415C-53.1172 122.518 -68.0951 64.8605 -45.7975 27.6711C-23.4999 -9.51835 35.9929 -26.3262 96.3575 -26.9801C156.722 -27.6341 218.039 -12.226 256.582 28.7036Z" fill="#39B081"/>
<path d="M244.605 277.987C296.186 277.987 338 236.172 338 184.592C338 133.011 296.186 91.1965 244.605 91.1965C193.024 91.1965 151.21 133.011 151.21 184.592C151.21 236.172 193.024 277.987 244.605 277.987Z" stroke="#0066FF" stroke-width="2.47" stroke-linecap="round" stroke-linejoin="round"/>
<path d="M44.1618 25.4224L-82 181.419L145.014 238.325L44.1618 25.4224Z" stroke="#0066FF" stroke-width="3.06" stroke-linecap="round" stroke-linejoin="round"/>
<path d="M95.6236 114.71C158.816 116.833 162.453 235.405 155.042 247.544C147.63 259.682 56.5755 255.402 44.4315 239.69C32.2874 223.978 48.556 113.098 95.6236 114.71Z" fill="#0066FF"/>
<path d="M89.4741 139.572L124.518 190.603" stroke="white" stroke-width="8" stroke-linecap="round" stroke-linejoin="round"/>
<path d="M112.73 95.8086C130.044 95.8086 144.079 81.7729 144.079 64.4589C144.079 47.145 130.044 33.1092 112.73 33.1092C95.4156 33.1092 81.3799 47.145 81.3799 64.4589C81.3799 81.7729 95.4156 95.8086 112.73 95.8086Z" fill="white"/>
<path d="M110.618 61.3612C111.049 58.1546 110.188 55.3896 108.691 55.1888C107.194 54.988 105.639 57.426 105.209 60.6327C104.779 63.8394 105.645 66.6043 107.136 66.8051C108.628 67.0059 110.188 64.5908 110.618 61.3612Z" stroke="#2B7C63" stroke-width="4.93" stroke-linecap="round" stroke-linejoin="round"/>
<path d="M93.059 -12.6332L97.218 34.79L54.0684 14.6837L93.059 -12.6332Z" fill="#2B7C63"/>
<path d="M201.822 15.0659L182.703 15.0425C177.735 15.0365 173.703 19.0586 173.697 24.0263L173.674 43.1459C173.668 48.1135 177.69 52.1455 182.657 52.1516L201.777 52.175C206.745 52.181 210.777 48.1589 210.783 43.1912L210.806 24.0716C210.812 19.104 206.79 15.072 201.822 15.0659Z" fill="#C2C2C2"/>
<path d="M210.823 22.2845C214.799 22.2845 218.022 19.0613 218.022 15.0853C218.022 11.1093 214.799 7.88605 210.823 7.88605C206.847 7.88605 203.624 11.1093 203.624 15.0853C203.624 19.0613 206.847 22.2845 210.823 22.2845Z" fill="#39B081"/>
<path d="M189.816 25.692L183.259 37.0158C183.011 37.4431 182.88 37.9282 182.879 38.4223C182.879 38.9164 183.008 39.4019 183.255 39.83C183.501 40.2582 183.856 40.6137 184.284 40.8609C184.712 41.108 185.197 41.238 185.692 41.2378H198.771C199.264 41.2377 199.749 41.1079 200.177 40.8615C200.604 40.6151 200.96 40.2606 201.207 39.8336C201.455 39.4066 201.585 38.922 201.587 38.4285C201.588 37.935 201.46 37.4498 201.214 37.0215L194.686 25.6977C194.44 25.2697 194.086 24.9141 193.659 24.6666C193.231 24.4191 192.747 24.2885 192.253 24.288C191.759 24.2874 191.274 24.4168 190.846 24.6633C190.418 24.9098 190.063 25.2646 189.816 25.692Z" fill="white"/>
<path fill-rule="evenodd" clip-rule="evenodd" d="M95.6235 170.061C95.6235 167.074 96.5094 164.154 98.169 161.67C99.8287 159.186 102.188 157.25 104.948 156.107C107.707 154.964 110.744 154.665 113.674 155.247C116.604 155.83 119.295 157.269 121.408 159.381C123.52 161.493 124.959 164.185 125.541 167.115C126.124 170.044 125.825 173.081 124.682 175.841C123.539 178.601 121.603 180.96 119.119 182.62C116.635 184.279 113.715 185.165 110.728 185.165C106.722 185.165 102.88 183.574 100.047 180.741C97.2148 177.909 95.6235 174.067 95.6235 170.061Z" fill="white"/>
<path d="M168.459 222.802L119.699 231.407L136.909 159.128L185.668 150.523L168.459 222.802Z" fill="#C2C2C2"/>
<path d="M170.817 224.408L122.057 233.013L139.266 160.734L188.026 152.129L170.817 224.408Z" fill="#0066FF"/>
<path d="M140.597 158.628C140.486 158.231 140.43 157.82 140.431 157.407C140.431 156.499 140.7 155.612 141.204 154.857C141.708 154.102 142.425 153.514 143.264 153.167C144.102 152.819 145.025 152.729 145.915 152.906C146.805 153.083 147.623 153.52 148.265 154.162C148.907 154.803 149.344 155.621 149.521 156.511C149.698 157.402 149.607 158.324 149.26 159.163C148.912 160.001 148.324 160.718 147.569 161.222C146.815 161.727 145.927 161.996 145.02 161.996" stroke="#0066FF" stroke-width="5.14" stroke-linecap="round" stroke-linejoin="round"/>
<path d="M154.399 156.179C154.293 155.78 154.239 155.37 154.239 154.957C154.239 154.05 154.508 153.162 155.012 152.408C155.516 151.653 156.233 151.065 157.072 150.717C157.91 150.37 158.833 150.279 159.723 150.456C160.613 150.633 161.431 151.07 162.073 151.712C162.715 152.354 163.152 153.172 163.329 154.062C163.506 154.952 163.415 155.875 163.068 156.713C162.72 157.552 162.132 158.269 161.378 158.773C160.623 159.277 159.736 159.546 158.828 159.546" stroke="#0066FF" stroke-width="5.14" stroke-linecap="round" stroke-linejoin="round"/>
<path d="M166.888 154.045C166.777 153.647 166.721 153.236 166.721 152.823C166.721 151.916 166.99 151.028 167.495 150.274C167.999 149.519 168.716 148.931 169.554 148.583C170.393 148.236 171.315 148.145 172.206 148.322C173.096 148.499 173.914 148.936 174.555 149.578C175.197 150.22 175.634 151.038 175.811 151.928C175.988 152.818 175.898 153.741 175.55 154.579C175.203 155.418 174.615 156.135 173.86 156.639C173.105 157.143 172.218 157.412 171.31 157.412" stroke="#0066FF" stroke-width="5.14" stroke-linecap="round" stroke-linejoin="round"/>
<path d="M179.811 151.601C179.553 150.676 179.592 149.692 179.922 148.79C180.253 147.887 180.858 147.112 181.653 146.572C182.448 146.032 183.393 145.755 184.354 145.78C185.314 145.806 186.243 146.132 187.008 146.714C187.773 147.295 188.337 148.102 188.619 149.021C188.901 149.94 188.887 150.924 188.58 151.834C188.273 152.745 187.688 153.536 186.907 154.097C186.127 154.657 185.19 154.958 184.228 154.957" stroke="#0066FF" stroke-width="5.14" stroke-linecap="round" stroke-linejoin="round"/>
<path fill-rule="evenodd" clip-rule="evenodd" d="M169.125 190.965C169.125 187.978 170.01 185.057 171.67 182.573C173.33 180.09 175.689 178.154 178.449 177.011C181.208 175.867 184.245 175.568 187.175 176.151C190.105 176.734 192.796 178.172 194.909 180.285C197.021 182.397 198.46 185.088 199.042 188.018C199.625 190.948 199.326 193.985 198.183 196.745C197.04 199.505 195.104 201.864 192.62 203.523C190.136 205.183 187.216 206.069 184.229 206.069C180.223 206.069 176.381 204.478 173.548 201.645C170.716 198.812 169.125 194.971 169.125 190.965Z" fill="white"/>
<path d="M285.156 45.4942H242.086C240.401 45.4942 239.035 46.8605 239.035 48.546V102.193C239.035 103.879 240.401 105.245 242.086 105.245H285.156C286.841 105.245 288.208 103.879 288.208 102.193V48.546C288.208 46.8605 286.841 45.4942 285.156 45.4942Z" fill="#C2C2C2"/>
<path d="M248.139 59.2502C250.09 59.2502 251.672 57.6682 251.672 55.7166C251.672 53.765 250.09 52.1829 248.139 52.1829C246.187 52.1829 244.605 53.765 244.605 55.7166C244.605 57.6682 246.187 59.2502 248.139 59.2502Z" fill="white"/>
<path d="M256.399 55.7166H282.643" stroke="white" stroke-width="2.48" stroke-linecap="round" stroke-linejoin="round"/>
<path d="M248.139 73.7463C250.09 73.7463 251.672 72.1642 251.672 70.2126C251.672 68.261 250.09 66.679 248.139 66.679C246.187 66.679 244.605 68.261 244.605 70.2126C244.605 72.1642 246.187 73.7463 248.139 73.7463Z" fill="white"/>
<path d="M256.399 70.2125H282.643" stroke="white" stroke-width="2.48" stroke-linecap="round" stroke-linejoin="round"/>
<path d="M248.139 88.2365C250.09 88.2365 251.672 86.6545 251.672 84.7029C251.672 82.7513 250.09 81.1692 248.139 81.1692C246.187 81.1692 244.605 82.7513 244.605 84.7029C244.605 86.6545 246.187 88.2365 248.139 88.2365Z" fill="white"/>
<path d="M256.399 84.7028H282.643" stroke="white" stroke-width="2.48" stroke-linecap="round" stroke-linejoin="round"/>
</svg>
