<svg width="256" height="291" viewBox="0 0 256 291" fill="none" xmlns="http://www.w3.org/2000/svg">
<path d="M57.6106 -12.2568C32.2029 15.511 15.3566 47.1159 13.3348 78.4526C11.3131 109.723 24.0624 140.722 39.4151 173.003C54.7802 205.215 72.7034 238.709 99.9967 250.427C127.294 262.095 164.015 251.987 191.247 234.059C218.478 216.202 236.195 190.601 248.866 164.24C261.537 137.879 269.083 110.734 266.195 83.8453C263.307 57.0265 249.951 30.5378 228.995 1.96541C208.093 -26.6111 179.657 -57.1391 148.386 -60.5059C117.115 -63.8727 83.0844 -40.0205 57.6106 -12.2568Z" fill="#39B081"/>
<path d="M134.7 -31.4178L278.23 119.374L27.5735 168.226L134.7 -31.4178Z" stroke="#0066FF" stroke-width="4.36" stroke-linecap="round" stroke-linejoin="round"/>
<path d="M166.759 44.302C155.739 44.302 146.806 35.3686 146.806 24.3488C146.806 13.3289 155.739 4.3956 166.759 4.3956C177.779 4.3956 186.712 13.3289 186.712 24.3488C186.712 35.3686 177.779 44.302 166.759 44.302Z" fill="white"/>
<path d="M152.974 20.6973C152.698 18.6343 153.246 16.8973 154.212 16.7694C155.177 16.6415 156.155 18.1929 156.428 20.2352C156.7 22.2776 156.155 24.0352 155.19 24.1631C154.224 24.291 153.246 22.7397 152.974 20.6973Z" stroke="#2B7C63" stroke-width="4.36" stroke-linecap="round" stroke-linejoin="round"/>
<path d="M-3.99845 21.2172L5.89977 58.1487L32.9331 31.1154L-3.99845 21.2172Z" fill="#4CC0E4"/>
<path fill-rule="evenodd" clip-rule="evenodd" d="M92.0005 50.2393C92.0005 47.4386 91.17 44.7009 89.614 42.3722C88.0581 40.0435 85.8465 38.2286 83.2591 37.1568C80.6716 36.0851 77.8245 35.8046 75.0776 36.351C72.3308 36.8974 69.8076 38.246 67.8273 40.2264C65.8469 42.2067 64.4983 44.7299 63.9519 47.4767C63.4055 50.2235 63.686 53.0707 64.7577 55.6582C65.8295 58.2456 67.6444 60.4572 69.9731 62.0131C72.3018 63.5691 75.0395 64.3996 77.8402 64.3996C81.5954 64.3985 85.1965 62.9062 87.8518 60.2509C90.5072 57.5956 91.9994 53.9945 92.0005 50.2393Z" fill="white"/>
<path d="M146.096 266.807C137.547 266.807 116.232 267.872 102.835 290.61H164.605V266.807H146.096Z" fill="#0066FF"/>
<path d="M68.5279 218.451C61.9264 212.992 44.8531 200.214 20.0272 209.167L67.5872 248.587L82.7749 230.264L68.5279 218.451Z" fill="#C2C2C2"/>
<path d="M161.952 57.8269C144.78 61.3134 124.674 103.955 144.8 156.355C160.095 166.67 203.171 160.324 215.817 150.492C221.197 117.076 190.793 51.968 161.952 57.8269Z" fill="#0066FF"/>
<path fill-rule="evenodd" clip-rule="evenodd" d="M216.44 159.363C216.44 146.948 134.601 99.9036 111.731 99.9036C77.7741 99.9036 65.2807 209.048 63.4859 215.583C65.9367 218.199 82.4942 231.072 82.4942 231.072C88.5388 222.09 133.458 152.341 133.458 152.341C140.972 158.546 171.029 187.3 186.642 187.3C195.529 187.3 216.44 179.782 216.44 159.363Z" fill="#C2C2C2"/>
<path fill-rule="evenodd" clip-rule="evenodd" d="M118.555 139.439C76.8089 149.436 124.864 251.401 136.103 268.734C143.555 272.254 159.052 273.528 164.605 267.434C165.554 259.694 170.291 127.032 118.555 139.439Z" fill="#0066FF"/>
<path fill-rule="evenodd" clip-rule="evenodd" d="M220.809 141.192C220.809 138.391 219.979 135.654 218.423 133.325C216.867 130.996 214.655 129.181 212.068 128.11C209.48 127.038 206.633 126.758 203.886 127.304C201.139 127.85 198.616 129.199 196.636 131.179C194.656 133.16 193.307 135.683 192.761 138.43C192.214 141.176 192.495 144.024 193.566 146.611C194.638 149.199 196.453 151.41 198.782 152.966C201.11 154.522 203.848 155.352 206.649 155.352C208.508 155.352 210.35 154.986 212.068 154.275C213.786 153.563 215.347 152.52 216.662 151.205C217.977 149.89 219.02 148.329 219.731 146.611C220.443 144.893 220.809 143.052 220.809 141.192Z" fill="white"/>
<path d="M174.384 187.263H263.071L273.725 92.1467" stroke="#0066FF" stroke-width="3.06" stroke-linecap="round" stroke-linejoin="round"/>
<path d="M241.695 187.263L272.722 279.416" stroke="#0066FF" stroke-width="3.06" stroke-linecap="round" stroke-linejoin="round"/>
<path d="M199.833 187.263L168.81 279.416" stroke="#0066FF" stroke-width="3.06" stroke-linecap="round" stroke-linejoin="round"/>
<path d="M34.0472 -16.5891L54.087 -35.3457L78.9336 -8.79924L58.8937 9.95741C56.0468 12.6187 48.1662 8.83515 41.3171 1.50742C34.468 -5.8203 31.2209 -13.9237 34.0472 -16.5891Z" fill="#4CC0E4"/>
<path d="M35.7064 6.78493C28.8451 -0.544698 25.5902 -8.64655 28.4366 -11.311C31.2829 -13.9755 39.1526 -10.1937 46.0139 -2.86406C52.8753 4.46557 56.1301 12.5674 53.2837 15.2319C50.4374 17.8964 42.5678 14.1146 35.7064 6.78493Z" stroke="#0066FF" stroke-width="5.14" stroke-linecap="round" stroke-linejoin="round"/>
<path d="M-0.933978 -28.7225L10.1943 -7.4902L-11.038 3.63812L-22.1663 -17.5942L-0.933978 -28.7225Z" fill="#39B081"/>
</svg>
