<svg width="256" height="345" viewBox="0 0 256 345" fill="none" xmlns="http://www.w3.org/2000/svg">
<path d="M283.006 57.2694C291.129 97.7184 252.653 146.637 222.407 192.308C192.161 237.978 170.235 280.414 137.93 289.762C105.699 299.144 63.0381 275.507 31.848 244.547C0.747727 213.616 -18.9651 175.344 -28.0561 123.634C-37.2262 71.8893 -35.7069 6.76715 -1.75425 -23.9652C32.2555 -54.5986 98.6983 -50.8237 159.366 -32.9219C219.975 -15.1333 274.86 16.9029 283.006 57.2694Z" fill="#39B081"/>
<path d="M96.0511 -37.5419L-75.5774 87.317L140.815 207.606L96.0511 -37.5419Z" stroke="#0066FF" stroke-width="4.13" stroke-linecap="round" stroke-linejoin="round"/>
<path fill-rule="evenodd" clip-rule="evenodd" d="M54.226 217.274C40.3891 212.477 25.214 213.371 12.036 219.759C-1.14205 226.147 -11.2445 237.506 -16.0509 251.339L88.2911 287.551C93.0876 273.714 92.1937 258.539 85.806 245.361C79.4182 232.183 68.0593 222.08 54.226 217.274Z" fill="#0066FF"/>
<path d="M125.162 85.7516C141.66 90.1724 158.619 80.3814 163.04 63.8827C167.461 47.384 157.67 30.4254 141.171 26.0046C124.672 21.5838 107.714 31.3748 103.293 47.8735C98.872 64.3722 108.663 81.3308 125.162 85.7516Z" fill="white"/>
<path d="M143.812 52.3651C145.809 49.8733 146.488 47.0979 145.327 46.173C144.166 45.2481 141.609 46.5114 139.612 49.0032C137.614 51.495 136.963 54.273 138.111 55.1944C139.259 56.1158 141.818 54.858 143.812 52.3651Z" stroke="#2B7C63" stroke-width="6.21" stroke-linecap="round" stroke-linejoin="round"/>
<path d="M125.737 40.2546C127.735 37.7628 128.413 34.9874 127.252 34.0625C126.091 33.1376 123.535 34.4009 121.537 36.8927C119.54 39.3844 118.867 42.1567 120.027 43.0859C121.187 44.0151 123.75 42.7258 125.737 40.2546Z" stroke="#2B7C63" stroke-width="6.21" stroke-linecap="round" stroke-linejoin="round"/>
<path d="M164.076 -1.68723C174.394 1.07722 184.998 -5.04539 187.763 -15.3625C190.527 -25.6795 184.405 -36.2842 174.087 -39.0486C163.77 -41.8131 153.166 -35.6905 150.401 -25.3734C147.637 -15.0563 153.759 -4.45168 164.076 -1.68723Z" fill="#2B7C63"/>
<path d="M34.0161 75.1414L40.4916 250.276L173.891 134.61L34.0161 75.1414Z" fill="#0066FF"/>
<path d="M65.4493 -32.1921L-23.0649 -55.9095L-35.9448 -7.84114L52.5695 15.8762L65.4493 -32.1921Z" fill="#0066FF"/>
<path fill-rule="evenodd" clip-rule="evenodd" d="M32.5659 10.5162L46.2868 39.3247L52.5698 15.8762L32.5659 10.5162Z" fill="#0066FF"/>
<path fill-rule="evenodd" clip-rule="evenodd" d="M237.646 18.6628L211.361 36.7469L217.643 13.3027L237.646 18.6628Z" fill="#0066FF"/>
<path d="M217.698 13.3919L306.212 37.1093L314.869 4.80195L226.354 -18.9154L217.698 13.3919Z" fill="#0066FF"/>
<path d="M38.7045 201.9C51.8637 198.301 65.7445 198.276 78.9167 201.827C83.1433 202.958 87.2669 204.444 91.2434 206.269" stroke="#0066FF" stroke-width="6.94" stroke-linecap="round" stroke-linejoin="round"/>
<path d="M37.75 178.79C49.5771 175.356 62.0541 174.801 74.1394 177.172C86.2247 179.542 97.5676 184.769 107.221 192.416" stroke="#0066FF" stroke-width="6.94" stroke-linecap="round" stroke-linejoin="round"/>
<path d="M127.832 174.532C113.13 167.779 100.924 156.574 92.94 142.502C84.9565 128.43 81.6001 112.204 83.3457 96.1198" stroke="#0066FF" stroke-width="6.94" stroke-linecap="round" stroke-linejoin="round"/>
<path fill-rule="evenodd" clip-rule="evenodd" d="M3.59266 175.32C4.65875 171.341 6.88072 167.768 9.9776 165.052C13.0745 162.336 16.9071 160.6 20.991 160.062C25.0748 159.524 29.2263 160.21 32.9206 162.032C36.6149 163.853 39.6859 166.73 41.7455 170.297C43.805 173.864 44.7605 177.962 44.4911 182.072C44.2217 186.182 42.7395 190.121 40.232 193.388C37.7244 196.656 34.3042 199.107 30.4037 200.431C26.5033 201.755 22.2978 201.893 18.3191 200.827C15.677 200.119 13.2002 198.899 11.0301 197.234C8.86 195.569 7.03916 193.493 5.6716 191.124C4.30404 188.756 3.41656 186.141 3.05985 183.429C2.70314 180.717 2.88419 177.962 3.59266 175.32Z" fill="white"/>
<path d="M255.437 220.93C278.95 213.035 296.584 202.386 294.824 197.145C293.064 191.903 272.576 194.054 249.064 201.949C225.551 209.843 207.917 220.492 209.677 225.734C211.437 230.975 231.924 228.824 255.437 220.93Z" fill="#0066FF"/>
<path d="M255.84 220.051C261.219 197.616 305.391 135.948 332.379 124.315" stroke="#2B7C63" stroke-width="6.06" stroke-linecap="round" stroke-linejoin="round"/>
<path d="M252.44 220.4C255.411 203.016 236.013 154.422 217.708 141.421" stroke="#0066FF" stroke-width="6.94" stroke-linecap="round" stroke-linejoin="round"/>
<path fill-rule="evenodd" clip-rule="evenodd" d="M222.958 138.471L242.315 122.297L218.629 113.621L222.958 138.471Z" fill="#0066FF"/>
<path fill-rule="evenodd" clip-rule="evenodd" d="M236.235 154.825L261.401 153.12L247.339 132.176L236.235 154.825Z" fill="#0066FF"/>
<path fill-rule="evenodd" clip-rule="evenodd" d="M208.995 178.814L223.256 158.006L198.107 156.057L208.995 178.814Z" fill="#0066FF"/>
<path fill-rule="evenodd" clip-rule="evenodd" d="M90.3958 81.272C91.466 77.2954 93.691 73.7253 96.7897 71.0129C99.8884 68.3006 103.722 66.5678 107.805 66.0336C111.888 65.4994 116.038 66.1877 119.731 68.0116C123.423 69.8355 126.491 72.713 128.548 76.2805C130.606 79.848 131.559 83.9453 131.288 88.0544C131.017 92.1636 129.534 96.1002 127.026 99.3667C124.518 102.633 121.098 105.083 117.198 106.406C113.299 107.729 109.094 107.866 105.116 106.801C102.473 106.092 99.9948 104.87 97.824 103.203C95.6532 101.536 93.8321 99.4583 92.465 97.0874C91.0978 94.7165 90.2114 92.0994 89.8564 89.3856C89.5013 86.6719 89.6846 83.9148 90.3958 81.272Z" fill="#0066FF"/>
<path d="M96.0712 116.097L62.356 101.762" stroke="white" stroke-width="16.23" stroke-linecap="round" stroke-linejoin="round"/>
</svg>
