<svg width="256" height="368" viewBox="0 0 256 368" fill="none" xmlns="http://www.w3.org/2000/svg">
<path d="M174.682 -79.8689C215.907 -72.2159 250.503 -26.7129 272.471 20.7278C294.49 68.1446 303.869 117.383 295.081 165.913C286.242 214.57 259.221 262.413 220.668 276.436C182.248 290.486 132.476 270.606 86.2326 253.75C39.9605 237.015 -2.66568 223.325 -33.9606 190.599C-65.2129 157.946 -85.0621 106.211 -71.254 66.8883C-57.4924 27.4934 -9.97303 0.334134 37.7358 -28.3836C85.4446 -57.1013 133.434 -87.3905 174.682 -79.8689Z" fill="#39B081"/>
<path d="M256.27 -177L16 -38.2798L183.531 251.893L423.802 113.173L256.27 -177Z" fill="#4CC0E4"/>
<path d="M166.24 179.519C213.705 152.115 229.968 91.4218 202.564 43.9569C175.16 -3.50807 114.467 -19.7708 67.002 7.63314C19.537 35.037 3.27433 95.7302 30.6782 143.195C58.0821 190.66 118.775 206.923 166.24 179.519Z" fill="#0066FF"/>
<path d="M102.576 68.4215C115.671 60.8616 120.157 44.1181 112.597 31.0239C105.037 17.9297 88.2936 13.4433 75.1994 21.0033C62.1052 28.5632 57.6188 45.3067 65.1787 58.4009C72.7387 71.4951 89.4821 75.9815 102.576 68.4215Z" fill="white"/>
<path d="M85.3784 40.5974C83.6917 38.3332 81.4717 37.1259 80.4153 37.9083C79.3589 38.6908 79.8734 41.1784 81.5522 43.4374C83.231 45.6964 85.4611 46.9126 86.5154 46.1264C87.5697 45.3403 87.0701 42.8786 85.3784 40.5974Z" stroke="#2B7C63" stroke-width="3.65" stroke-linecap="round" stroke-linejoin="round"/>
<path d="M144 231L262.978 158.414" stroke="white" stroke-width="7" stroke-linecap="round" stroke-linejoin="round"/>
<path d="M158.359 253.317L234.092 209.592" stroke="white" stroke-width="7" stroke-linecap="round" stroke-linejoin="round"/>
<path d="M103.451 79.0357C70.105 98.288 88.1788 154.247 107.859 192.432C127.289 194.151 146.794 190.107 163.939 180.807C181.084 171.507 195.11 157.362 204.264 140.138C180.365 104.019 138.687 58.6871 103.451 79.0357Z" fill="#39B081"/>
<path d="M158.512 183.547C155.537 181.258 153.106 178.338 151.395 174.998C149.683 171.657 148.734 167.978 148.614 164.226C148.495 160.475 149.209 156.743 150.704 153.3C152.2 149.857 154.44 146.789 157.263 144.315C160.087 141.842 163.424 140.025 167.033 138.996C170.643 137.966 174.436 137.75 178.139 138.362C181.843 138.974 185.365 140.4 188.451 142.536C191.538 144.672 194.112 147.466 195.99 150.716C196.261 151.186 196.532 151.655 196.756 152.147" stroke="#0066FF" stroke-width="5.14" stroke-linecap="round" stroke-linejoin="round"/>
<path d="M92.0098 154.992C97.1011 152.175 103.005 151.191 108.735 152.206C114.465 153.221 119.672 156.172 123.486 160.567C127.3 164.961 129.489 170.532 129.688 176.348C129.886 182.163 128.081 187.87 124.575 192.514" stroke="#0066FF" stroke-width="5.14" stroke-linecap="round" stroke-linejoin="round"/>
<path d="M151.525 134.559C163.67 127.547 167.831 112.018 160.819 99.8726C153.807 87.7277 138.278 83.5666 126.133 90.5784C113.988 97.5903 109.827 113.12 116.839 125.265C123.851 137.41 139.38 141.571 151.525 134.559Z" stroke="white" stroke-width="5.14" stroke-linecap="round" stroke-linejoin="round"/>
<path d="M96.817 83.945C99.501 89.7019 99.9303 96.2556 98.0202 102.313C96.1101 108.371 91.9993 113.493 86.4987 116.67C85.9738 116.973 85.4419 117.255 84.9089 117.519" stroke="#0066FF" stroke-width="5.14" stroke-linecap="round" stroke-linejoin="round"/>
<path d="M110.403 162.342C105.733 149.498 102.255 136.277 101.262 124.066" stroke="white" stroke-width="16.23" stroke-linecap="round" stroke-linejoin="round"/>
<path d="M166.24 179.519C213.705 152.115 229.968 91.4218 202.564 43.9569C175.16 -3.50807 114.467 -19.7708 67.002 7.63314C19.537 35.037 3.27433 95.7302 30.6782 143.195C58.0821 190.66 118.775 206.923 166.24 179.519Z" stroke="white" stroke-width="3" stroke-miterlimit="10"/>
<path fill-rule="evenodd" clip-rule="evenodd" d="M95.8443 201.576C94.253 198.818 93.5151 195.65 93.7241 192.473C93.9331 189.296 95.0795 186.252 97.0184 183.726C98.9573 181.201 101.602 179.306 104.617 178.283C107.632 177.26 110.883 177.155 113.959 177.979C117.034 178.804 119.796 180.521 121.895 182.916C123.994 185.31 125.337 188.273 125.752 191.43C126.167 194.586 125.637 197.796 124.229 200.651C122.821 203.507 120.597 205.881 117.84 207.473C116.008 208.53 113.987 209.217 111.89 209.492C109.793 209.768 107.663 209.628 105.62 209.081C103.578 208.533 101.663 207.589 99.9859 206.301C98.3085 205.013 96.9011 203.408 95.8443 201.576Z" fill="white"/>
<path fill-rule="evenodd" clip-rule="evenodd" d="M145.099 15.4232C143.507 12.6653 142.77 9.4974 142.979 6.32015C143.188 3.14291 144.334 0.0989763 146.273 -2.42676C148.212 -4.95251 150.856 -6.84663 153.871 -7.86963C156.887 -8.89263 160.137 -8.99857 163.213 -8.17405C166.288 -7.34953 169.05 -5.63159 171.15 -3.23744C173.249 -0.843293 174.591 2.11956 175.006 5.27646C175.422 8.43336 174.892 11.6425 173.483 14.4982C172.075 17.3539 169.851 19.7279 167.094 21.32C165.263 22.3773 163.241 23.0635 161.144 23.3394C159.048 23.6152 156.917 23.4754 154.875 22.9278C152.832 22.3802 150.918 21.4356 149.24 20.148C147.563 18.8603 146.156 17.2548 145.099 15.4232Z" fill="white"/>
<path d="M56.31 34.3833C64.4985 29.6557 67.3041 19.1851 62.5764 10.9967C57.8488 2.8082 47.3783 0.00262451 39.1898 4.73024C31.0014 9.45785 28.1958 19.9284 32.9234 28.1169C37.651 36.3053 48.1216 39.1109 56.31 34.3833Z" fill="#2B7C63"/>
</svg>
