<svg width="103" height="104" viewBox="0 0 103 104" fill="none" xmlns="http://www.w3.org/2000/svg">
<path d="M44.5534 88.8795L14.0755 54.9353C12.9229 53.6515 12.1285 52.087 11.7719 50.3989C11.4154 48.7109 11.5093 46.9587 12.0441 45.3185C12.579 43.6782 13.5361 42.2075 14.8192 41.0542C16.1023 39.9008 17.6663 39.1054 19.3541 38.7478L64.019 29.3335C65.7059 28.977 67.4568 29.0709 69.0959 29.6058C70.7349 30.1407 72.2042 31.0977 73.3561 32.3805C74.508 33.6634 75.3018 35.2269 75.6577 36.9139C76.0136 38.6009 75.9191 40.3518 75.3836 41.9907L61.2052 85.3588C60.6689 86.9974 59.7111 88.4662 58.4279 89.6179C57.1448 90.7695 55.5813 91.5635 53.8944 91.9202C52.2075 92.2768 50.4565 92.1836 48.817 91.6499C47.1774 91.1163 45.7071 90.1609 44.5534 88.8795V88.8795Z" stroke="#4CC0E4" stroke-width="10.07" stroke-linecap="round" stroke-linejoin="round"/>
</svg>
