<svg width="181" height="181" viewBox="0 0 181 181" fill="none" xmlns="http://www.w3.org/2000/svg">
<path fill-rule="evenodd" clip-rule="evenodd" d="M161.38 71.1568C157.609 57.0834 149.75 44.4441 138.795 34.8375C127.841 25.2309 114.284 19.0883 99.8388 17.1866C85.3935 15.2848 70.7087 17.7092 57.6413 24.1534C44.5739 30.5975 33.7108 40.7718 26.4259 53.3898C19.1409 66.0077 15.7612 80.5026 16.7141 95.0413C17.6671 109.58 22.9098 123.51 31.7794 135.069C40.649 146.628 52.7472 155.297 66.5439 159.981C80.3406 164.664 95.2163 165.151 109.29 161.38C118.634 158.876 127.394 154.556 135.069 148.667C142.744 142.778 149.184 135.435 154.021 127.057C163.79 110.137 166.437 90.0288 161.38 71.1568Z" fill="#39B081"/>
</svg>
