<svg width="140" height="140" viewBox="0 0 140 140" fill="none" xmlns="http://www.w3.org/2000/svg">
<path d="M47.4185 23.3667L94.4269 24.7126C106.641 25.0623 116.259 35.2471 115.909 47.4608L114.563 94.4693C114.213 106.683 104.028 116.301 91.8146 115.951L44.8062 114.605C32.5924 114.256 22.9747 104.071 23.3244 91.8571L24.6703 44.8486C25.02 32.6348 35.2047 23.017 47.4185 23.3667Z" fill="#C2C2C2"/>
<path d="M76.155 50.3157L91.4409 78.6339C92.0152 79.7035 92.2984 80.9053 92.262 82.1189C92.2256 83.3324 91.8709 84.5151 91.2335 85.5484C90.5961 86.5817 89.6983 87.4293 88.6301 88.0064C87.562 88.5835 86.3609 88.8697 85.1473 88.8364L52.9833 87.916C51.7648 87.8915 50.5745 87.5453 49.5329 86.9125C48.4913 86.2797 47.6355 85.3828 47.0521 84.3127C46.4688 83.2426 46.1787 82.0374 46.2112 80.8191C46.2438 79.6008 46.5978 78.4127 47.2374 77.3753L64.1191 49.9911C64.7528 48.945 65.6521 48.0853 66.7257 47.4994C67.7992 46.9135 69.0088 46.6222 70.2314 46.6552C71.454 46.6881 72.6461 47.0442 73.6865 47.6871C74.7269 48.3301 75.5786 49.237 76.155 50.3157Z" fill="white"/>
</svg>
