<svg width="534" height="609" viewBox="0 0 534 609" fill="none" xmlns="http://www.w3.org/2000/svg">
<path d="M461.163 0L371.769 543.263L1.73819 130.056L461.163 0Z" fill="#0066FF"/>
<path d="M330.018 37.1272C330.823 41.4398 331.806 45.7632 332.96 50.0699C339.783 75.6366 352.49 99.2535 370.066 119.035C387.642 138.816 409.6 154.213 434.186 163.996" stroke="#4CC0E4" stroke-width="6.94" stroke-linecap="round" stroke-linejoin="round"/>
<path d="M410.906 305.425C377.4 307.217 345.171 318.869 318.267 338.919C291.364 358.969 270.985 386.523 259.691 418.119" stroke="#4CC0E4" stroke-width="6.94" stroke-linecap="round" stroke-linejoin="round"/>
<path d="M420.18 249.214C377.229 237.976 331.586 243.975 292.998 265.931C254.41 287.886 225.934 324.058 213.652 366.723" stroke="#4CC0E4" stroke-width="6.94" stroke-linecap="round" stroke-linejoin="round"/>
<path d="M81.6621 219.322C99.9895 183.587 105.03 142.504 95.8838 103.398" stroke="#4CC0E4" stroke-width="6.94" stroke-linecap="round" stroke-linejoin="round"/>
<path d="M219.265 316.635L131.49 218.62" stroke="white" stroke-width="16.23" stroke-linecap="round" stroke-linejoin="round"/>
</svg>
