<svg width="1920" height="2172" viewBox="0 0 1920 2172" fill="none" xmlns="http://www.w3.org/2000/svg">
<path d="M341.842 997.37C364.146 975.074 400.274 975.108 422.577 997.402L532.254 1107.04C553.826 1128.6 588.8 1128.6 610.372 1107.04L1110.46 607.135C1132.76 584.84 1168.92 584.84 1191.23 607.135L1298.09 713.964C1319.67 735.528 1354.64 735.528 1376.21 713.964L2100.7 0V653.37L1376.21 1367.33C1354.64 1388.9 1319.67 1388.9 1298.09 1367.34L1191.23 1260.51C1168.92 1238.21 1132.76 1238.21 1110.46 1260.51L610.372 1760.41C588.8 1781.97 553.826 1781.97 532.254 1760.41L422.577 1650.77C400.274 1628.48 364.146 1628.45 341.842 1650.74L-179 2171.37V1518L341.842 997.37Z" fill="url(#paint0_linear)"/>
<defs>
<linearGradient id="paint0_linear" x1="960.852" y1="-32.6301" x2="960.852" y2="2281.24" gradientUnits="userSpaceOnUse">
<stop stop-color="#39B081"/>
<stop offset="1" stop-color="#0066FF"/>
</linearGradient>
</defs>
</svg>
