<svg width="213" height="70" viewBox="0 0 213 70" fill="none" xmlns="http://www.w3.org/2000/svg">
<path d="M94.4128 11.9285H90.7198V17.6534H89.2349V3.74146H94.4128C96.9917 3.74146 98.7114 5.38274 98.7114 7.82509C98.7114 10.2872 96.9917 11.9285 94.4128 11.9285ZM94.2759 5.07048H90.7198V10.5995H94.2759C96.1321 10.5995 97.2264 9.56413 97.2264 7.82509C97.2264 6.08604 96.1321 5.07048 94.2759 5.07048Z" fill="#313E79"/>
<path d="M102.953 13.2177C102.993 14.0968 103.051 14.4878 103.246 14.9568C103.696 16.0313 104.556 16.5395 105.865 16.5395C106.314 16.5395 106.744 16.4413 107.096 16.3048C107.526 16.1291 107.78 15.9529 108.307 15.4447L109.265 16.285C108.561 16.9693 108.229 17.2036 107.643 17.4379C107.115 17.6532 106.49 17.7703 105.786 17.7703C103.012 17.7703 101.547 16.0507 101.547 12.7879C101.547 9.75903 103.051 7.92261 105.494 7.92261C107.936 7.92261 109.44 9.70083 109.44 12.573V13.2177H102.953ZM107.858 10.8925C107.526 9.77882 106.627 9.11429 105.494 9.11429C104.478 9.11429 103.637 9.66166 103.246 10.5605C103.051 10.9903 102.993 11.303 102.953 12.1626H108.034C107.994 11.4201 107.975 11.244 107.858 10.8925Z" fill="#313E79"/>
<path d="M118.821 17.4771C118.353 17.6726 117.825 17.7703 117.2 17.7703C114.503 17.7703 112.882 15.9142 112.882 12.8465C112.882 9.77883 114.503 7.92261 117.2 7.92261C117.825 7.92261 118.353 8.02038 118.821 8.2159C119.349 8.45019 119.661 8.68448 120.307 9.34899L119.349 10.2474C118.861 9.73963 118.626 9.5441 118.255 9.38777C117.942 9.25123 117.59 9.17286 117.18 9.17286C115.285 9.17286 114.289 10.4235 114.289 12.8465C114.289 15.2695 115.265 16.5201 117.161 16.5201C117.571 16.5201 117.903 16.4611 118.216 16.3246C118.606 16.1484 118.841 15.9529 119.349 15.4254L120.307 16.344C119.661 17.0081 119.349 17.2428 118.821 17.4771Z" fill="#313E79"/>
<path d="M126.347 19.9783C125.898 21.2091 125.097 21.7759 123.788 21.7759H123.182V20.5256H123.612C124.53 20.5256 124.843 20.2913 125.194 19.3335L125.878 17.458L122.42 8.04004H123.944L126.581 15.7581L129.2 8.04004H130.724L126.347 19.9783Z" fill="#313E79"/>
<path d="M137.74 17.7703C137.153 17.7703 136.646 17.6726 136.196 17.4577C135.786 17.2622 135.551 17.0666 135.082 16.5201V21.9517H133.675V8.03977H135.082V9.17286C135.532 8.6457 135.766 8.45018 136.176 8.23528C136.606 8.02037 137.114 7.92261 137.72 7.92261C140.202 7.92261 141.315 9.46615 141.315 12.8659C141.315 16.207 140.182 17.7703 137.74 17.7703ZM137.486 9.17286C135.805 9.17286 135.082 10.287 135.082 12.8465C135.082 15.4254 135.805 16.5201 137.505 16.5201C139.186 16.5201 139.908 15.4254 139.908 12.8659C139.908 10.2474 139.205 9.17286 137.486 9.17286Z" fill="#313E79"/>
<path d="M150.716 17.4771C150.247 17.6726 149.72 17.7703 149.095 17.7703C146.398 17.7703 144.776 15.9142 144.776 12.8465C144.776 9.77883 146.398 7.92261 149.095 7.92261C149.72 7.92261 150.247 8.02038 150.716 8.2159C151.244 8.45019 151.556 8.68448 152.202 9.34899L151.244 10.2474C150.755 9.73963 150.521 9.5441 150.15 9.38777C149.837 9.25123 149.485 9.17286 149.075 9.17286C147.18 9.17286 146.183 10.4235 146.183 12.8465C146.183 15.2695 147.16 16.5201 149.055 16.5201C149.466 16.5201 149.798 16.4611 150.111 16.3246C150.501 16.1484 150.736 15.9529 151.244 15.4254L152.202 16.344C151.556 17.0081 151.244 17.2428 150.716 17.4771Z" fill="#313E79"/>
<path d="M161.915 17.6535V13.296H157.264V17.6535H155.877V8.04004H157.264V12.0845H161.915V8.04004H163.321V17.6535H161.915Z" fill="#313E79"/>
<path d="M172.116 17.6535H167.836V8.04004H169.224V11.8502H172.116C173.952 11.8502 175.164 13.0031 175.164 14.7615C175.164 16.5002 173.952 17.6535 172.116 17.6535ZM171.959 13.0811H169.224V16.4416H171.959C173.132 16.4416 173.757 15.8361 173.757 14.7615C173.757 13.6866 173.132 13.0811 171.959 13.0811ZM176.707 17.6535V8.04004H178.114V17.6535H176.707Z" fill="#313E79"/>
<path d="M189.177 17.6537V10.2091L184.233 17.6537H182.847V8.04027H184.233V15.4452L189.177 8.04027H190.584V17.6537H189.177ZM186.715 6.36021C185.093 6.36021 183.979 5.65651 183.862 3.89807H185.112C185.191 4.87525 185.758 5.36363 186.715 5.36363C187.672 5.36363 188.239 4.87525 188.318 3.89807H189.568C189.45 5.65651 188.337 6.36021 186.715 6.36021Z" fill="#313E79"/>
<path d="M99.6688 39.7457V29.1753L95.8582 37.5574H94.5885L90.7198 29.1753V39.7457H89.2349V25.8341H90.7198L95.2531 35.7012L99.6688 25.8341H101.154V39.7457H99.6688Z" fill="#313E79"/>
<path d="M112.079 38.7683C111.376 39.472 110.419 39.8626 109.325 39.8626C108.23 39.8626 107.273 39.472 106.57 38.7683C105.749 37.9281 105.397 36.7954 105.397 34.9388C105.397 33.0826 105.749 31.9495 106.57 31.1096C107.273 30.4059 108.23 30.0149 109.325 30.0149C110.399 30.0149 111.376 30.4059 112.079 31.1096C112.9 31.9297 113.252 33.0826 113.252 34.8806C113.252 36.7954 112.92 37.9087 112.079 38.7683ZM111.083 31.9693C110.653 31.5201 110.008 31.2655 109.325 31.2655C108.66 31.2655 108.016 31.5201 107.586 31.9693C107.019 32.5356 106.804 33.3754 106.804 34.9388C106.804 36.5021 107.019 37.3225 107.586 37.9087C108.016 38.3579 108.641 38.6124 109.325 38.6124C110.008 38.6124 110.653 38.3579 111.083 37.9087C111.63 37.3419 111.845 36.5219 111.845 34.9973C111.845 33.356 111.65 32.5356 111.083 31.9693Z" fill="#313E79"/>
<path d="M122.789 39.7452V31.3437H119.39V34.6655C119.39 38.6901 118.1 39.7452 116.341 39.7452H115.697V38.5337H116.009C116.869 38.5337 118.041 38.2603 118.041 34.255V30.1322H124.196V39.7452H122.789Z" fill="#313E79"/>
<path d="M134.867 38.7683C134.164 39.472 133.206 39.8626 132.112 39.8626C131.018 39.8626 130.06 39.472 129.357 38.7683C128.536 37.9281 128.185 36.7954 128.185 34.9388C128.185 33.0826 128.536 31.9495 129.357 31.1096C130.06 30.4059 131.018 30.0149 132.112 30.0149C133.186 30.0149 134.164 30.4059 134.867 31.1096C135.688 31.9297 136.039 33.0826 136.039 34.8806C136.039 36.7954 135.707 37.9087 134.867 38.7683ZM133.87 31.9693C133.44 31.5201 132.796 31.2655 132.112 31.2655C131.448 31.2655 130.803 31.5201 130.373 31.9693C129.806 32.5356 129.592 33.3754 129.592 34.9388C129.592 36.5021 129.806 37.3225 130.373 37.9087C130.803 38.3579 131.428 38.6124 132.112 38.6124C132.796 38.6124 133.44 38.3579 133.87 37.9087C134.417 37.3419 134.633 36.5219 134.633 34.9973C134.633 33.356 134.437 32.5356 133.87 31.9693Z" fill="#313E79"/>
<path d="M146.924 42.6174V39.7452H139.773V42.6174H138.425V38.5337H139.558C140.281 36.9316 140.828 35.4661 140.828 31.969V30.1322H146.866V38.5337H148.292V42.6174H146.924ZM145.459 31.3437H142.177V33.1607C142.157 35.7008 141.707 37.1074 141.082 38.5337H145.459V31.3437Z" fill="#313E79"/>
<path d="M152.555 35.3104C152.594 36.1894 152.652 36.5804 152.848 37.049C153.297 38.1236 154.157 38.6317 155.466 38.6317C155.915 38.6317 156.345 38.534 156.697 38.3975C157.127 38.2213 157.381 38.0456 157.908 37.5374L158.866 38.3776C158.162 39.0615 157.83 39.2963 157.244 39.5306C156.717 39.7455 156.091 39.8626 155.388 39.8626C152.613 39.8626 151.148 38.143 151.148 34.8806C151.148 31.8517 152.652 30.0149 155.095 30.0149C157.537 30.0149 159.042 31.7931 159.042 34.6657V35.3104H152.555ZM157.459 32.9852C157.127 31.8711 156.228 31.207 155.095 31.207C154.079 31.207 153.238 31.7543 152.848 32.6527C152.652 33.0825 152.594 33.3956 152.555 34.2553H157.635C157.596 33.5124 157.576 33.3366 157.459 32.9852Z" fill="#313E79"/>
<path d="M160.979 39.7452L165.492 34.6655L161.369 30.1322H163.089L167.153 34.7434V30.1322H168.54V34.7434L172.623 30.1322H174.324L170.201 34.6655L174.714 39.7452H172.936L168.54 34.7822V39.7452H167.153V34.7822L162.756 39.7452H160.979Z" fill="#313E79"/>
<path d="M183.627 39.7452V35.3881H178.977V39.7452H177.59V30.1322H178.977V34.1766H183.627V30.1322H185.034V39.7452H183.627Z" fill="#313E79"/>
<path d="M193.829 39.7452H189.55V30.1322H190.937V33.9424H193.829C195.666 33.9424 196.877 35.0953 196.877 36.8533C196.877 38.5923 195.666 39.7452 193.829 39.7452ZM193.672 35.1732H190.937V38.5337H193.672C194.845 38.5337 195.47 37.9278 195.47 36.8533C195.47 35.7788 194.845 35.1732 193.672 35.1732ZM198.421 39.7452V30.1322H199.827V39.7452H198.421Z" fill="#313E79"/>
<path d="M210.89 39.7453V32.3008L205.947 39.7453H204.559V30.1323H205.947V37.5373L210.89 30.1323H212.297V39.7453H210.89ZM208.428 28.4518C206.806 28.4518 205.692 27.7481 205.575 25.9901H206.826C206.904 26.9669 207.47 27.4552 208.428 27.4552C209.385 27.4552 209.952 26.9669 210.03 25.9901H211.281C211.163 27.7481 210.05 28.4518 208.428 28.4518Z" fill="#313E79"/>
<path d="M98.9848 65.1983V61.8373H89.2349V47.9258H90.7198V60.5091H97.3044V47.9258H98.7893V60.5091H100.45V65.1983H98.9848Z" fill="#313E79"/>
<path d="M104.869 57.4027C104.908 58.2821 104.967 58.6727 105.162 59.1417C105.611 60.2162 106.471 60.7244 107.78 60.7244C108.229 60.7244 108.659 60.6262 109.011 60.4901C109.441 60.314 109.695 60.1382 110.222 59.6296L111.18 60.4699C110.477 61.1542 110.144 61.3885 109.558 61.6232C109.031 61.8377 108.406 61.9553 107.702 61.9553C104.927 61.9553 103.462 60.2356 103.462 56.9728C103.462 53.9444 104.967 52.1075 107.409 52.1075C109.851 52.1075 111.356 53.8858 111.356 56.7579V57.4027H104.869ZM109.773 55.0779C109.441 53.9637 108.542 53.2992 107.409 53.2992C106.393 53.2992 105.553 53.8466 105.162 54.7454C104.967 55.1752 104.908 55.4879 104.869 56.3475H109.949C109.91 55.605 109.891 55.4289 109.773 55.0779Z" fill="#313E79"/>
<path d="M121.382 61.8374V57.4803H116.731V61.8374H115.344V52.2244H116.731V56.2688H121.382V52.2244H122.788V61.8374H121.382Z" fill="#313E79"/>
<path d="M130.451 53.4358V61.8374H129.044V53.4358H125.742V52.2244H133.597V53.4358H130.451Z" fill="#313E79"/>
<path d="M140.593 61.9553C140.006 61.9553 139.499 61.8575 139.049 61.6426C138.639 61.4471 138.404 61.2516 137.935 60.705V66.1366H136.528V52.2247H137.935V53.3578C138.385 52.8306 138.619 52.6351 139.029 52.4202C139.459 52.2053 139.968 52.1075 140.573 52.1075C143.055 52.1075 144.168 53.6511 144.168 57.0508C144.168 60.3919 143.035 61.9553 140.593 61.9553ZM140.339 53.3578C138.658 53.3578 137.935 54.4719 137.935 57.0314C137.935 59.6103 138.658 60.705 140.358 60.705C142.039 60.705 142.761 59.6103 142.761 57.0508C142.761 54.4323 142.058 53.3578 140.339 53.3578Z" fill="#313E79"/>
<path d="M38.4298 30.9015C36.3764 28.8481 33.0675 28.8481 31.0145 30.9015C28.9607 32.9553 28.9607 36.2638 31.0141 38.3168C33.0675 40.3706 36.3764 40.371 38.4302 38.3172C40.4836 36.2638 40.4811 32.9532 38.4298 30.9015Z" fill="#EEA010"/>
<path d="M11.4907 29.2393C12.4795 28.2506 12.4708 26.6332 11.4907 25.6532C10.5032 24.6657 8.89288 24.664 7.90414 25.6528C6.92366 26.6332 6.915 28.2506 7.90414 29.2397C8.88421 30.2198 10.509 30.221 11.4907 29.2393Z" fill="#313E79"/>
<path d="M4.32781 32.816C3.34031 31.8285 1.72296 31.8339 0.741241 32.816C-0.246255 33.8031 -0.247905 35.4139 0.741241 36.403C1.72131 37.3831 3.33908 37.3913 4.32781 36.4026C5.30788 35.4221 5.30788 33.7961 4.32781 32.816Z" fill="#313E79"/>
<path d="M29.217 11.513C30.1987 10.5312 30.197 8.90684 29.217 7.92677C28.2295 6.93927 26.6121 6.94465 25.6304 7.92637C24.6429 8.91386 24.6413 10.5246 25.6304 11.5134C26.6105 12.4938 28.2278 12.5021 29.217 11.513Z" fill="#313E79"/>
<path d="M20.6735 20.5603C21.6553 19.5782 21.6536 17.9538 20.6735 16.9737C19.686 15.9862 18.0687 15.9916 17.0869 16.9737C16.0994 17.9608 16.0978 19.5716 17.0869 20.5603C18.067 21.5408 19.6844 21.549 20.6735 20.5603Z" fill="#313E79"/>
<path d="M22.9422 5.2384C23.443 4.73723 23.4417 3.94484 22.9422 3.44491C22.441 2.94415 21.6495 2.94415 21.1487 3.44491C20.648 3.94608 20.6476 4.73764 21.1483 5.2384C21.6495 5.73958 22.441 5.73916 22.9422 5.2384Z" fill="#313E79"/>
<path d="M14.147 14.0336C14.6478 13.5329 14.6466 12.7401 14.147 12.2406C13.6463 11.7398 12.8547 11.7398 12.354 12.2406C11.8528 12.7413 11.8528 13.5333 12.3535 14.034C12.8543 14.5348 13.6463 14.5348 14.147 14.0336Z" fill="#313E79"/>
<path d="M36.3815 4.34892C37.369 3.36142 37.362 1.74241 36.3819 0.761928C35.3944 -0.225156 33.784 -0.226806 32.7949 0.761928C31.8148 1.74241 31.8062 3.35977 32.7953 4.34892C33.7754 5.32899 35.3997 5.33064 36.3815 4.34892Z" fill="#313E79"/>
<path d="M64.4007 46.6938C63.8995 47.195 63.9011 47.9878 64.4007 48.4873C64.9014 48.9881 65.693 48.9881 66.1937 48.4873C66.6945 47.9866 66.6945 47.195 66.1937 46.6938C65.693 46.193 64.9014 46.193 64.4007 46.6938Z" fill="#313E79"/>
<path d="M55.6038 55.4903C55.1026 55.9915 55.1043 56.7843 55.6038 57.2838C56.1045 57.7846 56.8961 57.7846 57.3969 57.2838C57.8976 56.7827 57.8976 55.9915 57.3969 55.4903C56.8961 54.9896 56.1045 54.9896 55.6038 55.4903Z" fill="#313E79"/>
<path d="M58.1237 26.0911C57.1453 27.0728 57.1367 28.6902 58.1242 29.6777C59.1042 30.6578 60.7286 30.6594 61.7103 29.6777C62.6978 28.6902 62.6924 27.0728 61.7107 26.0911C60.7232 25.1036 59.1129 25.1019 58.1237 26.0911Z" fill="#313E79"/>
<path d="M66.1924 23.4027C66.6932 22.9019 66.6932 22.1103 66.1924 21.6096C65.6917 21.1088 64.9001 21.1088 64.3993 21.6096C63.8982 22.1103 63.8994 22.9031 64.3993 23.4027C64.9001 23.9038 65.6917 23.9034 66.1924 23.4027Z" fill="#313E79"/>
<path d="M5.21701 22.9631C5.71777 22.4624 5.7153 21.6708 5.21578 21.1713C4.71502 20.6705 3.92346 20.6705 3.42393 21.17C2.92441 21.6691 2.92317 22.4624 3.42393 22.9631C3.92469 23.4639 4.71625 23.4639 5.21701 22.9631Z" fill="#313E79"/>
<path d="M5.21698 46.2551C4.71622 45.7543 3.92467 45.7543 3.42391 46.2551C2.92315 46.7563 2.92315 47.5478 3.42391 48.0486C3.92467 48.5493 4.71623 48.5497 5.21741 48.0486C5.71817 47.5478 5.71651 46.7546 5.21698 46.2551Z" fill="#313E79"/>
<path d="M12.3619 55.1761C11.8611 55.6769 11.8611 56.4685 12.3619 56.9692C12.8627 57.47 13.6542 57.4704 14.1554 56.9696C14.6562 56.4689 14.6545 55.6756 14.155 55.1761C13.6542 54.6753 12.8627 54.6753 12.3619 55.1761Z" fill="#313E79"/>
<path d="M48.028 5.23868C48.5287 4.7375 48.5271 3.94471 48.0276 3.44478C47.5284 2.94567 46.7352 2.94402 46.2345 3.44478C45.7337 3.94595 45.7337 4.73751 46.2345 5.23827C46.7352 5.73903 47.5272 5.73944 48.028 5.23868Z" fill="#313E79"/>
<path d="M56.9572 14.168C57.4583 13.6668 57.4563 12.874 56.9567 12.3745C56.4576 11.875 55.6648 11.8737 55.1637 12.3745C54.6629 12.8753 54.6629 13.6668 55.1637 14.1676C55.6644 14.6683 56.4564 14.6687 56.9572 14.168Z" fill="#313E79"/>
<path d="M43.5459 11.5134C44.5334 10.5259 44.535 8.91551 43.5459 7.92637C42.5658 6.9463 40.9485 6.93763 39.9593 7.92677C38.9792 8.90684 38.9776 10.5312 39.9593 11.513C40.9468 12.5005 42.5642 12.4951 43.5459 11.5134Z" fill="#313E79"/>
<path d="M48.8891 20.4424C49.8762 21.4303 51.494 21.4249 52.4757 20.4428C53.4628 19.4557 53.4644 17.8449 52.4757 16.8558C51.4952 15.8757 49.8779 15.8674 48.8891 16.8562C47.9087 17.8363 47.9074 19.4611 48.8891 20.4424Z" fill="#313E79"/>
<path d="M14.173 31.9207C12.6827 33.4106 12.6826 35.8109 14.1725 37.3004C15.662 38.7903 18.0627 38.7903 19.5526 37.3004C21.0421 35.8109 21.0405 33.409 19.5522 31.9207C18.0627 30.4312 15.6625 30.4312 14.173 31.9207Z" fill="#313E79"/>
<path d="M28.4815 46.2296C29.971 44.7401 29.9694 42.3382 28.4811 40.85C26.9916 39.3601 24.5913 39.3601 23.1019 40.85C21.6119 42.3399 21.612 44.7401 23.1014 46.2296C24.5909 47.7195 26.9916 47.7195 28.4815 46.2296Z" fill="#313E79"/>
<path d="M40.3976 58.1461C39.4171 59.1266 39.4155 60.751 40.3976 61.7327C41.3847 62.7202 43.0025 62.7145 43.9846 61.7327C44.9729 60.744 44.9713 59.1336 43.9842 58.1461C43.0037 57.1661 41.3863 57.1574 40.3976 58.1461Z" fill="#313E79"/>
<path d="M33.2353 65.3092C32.2478 66.2967 32.2531 67.914 33.2348 68.8957C34.2223 69.8832 35.8327 69.8849 36.8218 68.8957C37.8019 67.9157 37.8089 66.2967 36.8214 65.3092C35.8413 64.3291 34.217 64.3274 33.2353 65.3092Z" fill="#313E79"/>
<path d="M58.1239 40.4204C57.1364 41.4079 57.1418 43.0252 58.1235 44.007C59.111 44.9945 60.7214 44.9961 61.7106 44.007C62.6923 43.0252 62.6977 41.4079 61.7102 40.4204C60.7301 39.4403 59.1057 39.4386 58.1239 40.4204Z" fill="#313E79"/>
<path d="M49.3288 49.2155C48.3413 50.203 48.3471 51.8204 49.3284 52.8021C50.3159 53.7896 51.9267 53.7913 52.9154 52.8021C53.8971 51.8204 53.9029 50.203 52.915 49.2155C51.935 48.2355 50.3106 48.2338 49.3288 49.2155Z" fill="#313E79"/>
<path d="M68.8751 33.2552C67.8951 32.2751 66.2773 32.2669 65.2886 33.2556C64.3081 34.2357 64.3068 35.8601 65.2886 36.8422C66.2756 37.8293 67.8934 37.8239 68.8751 36.8422C69.8622 35.8547 69.8626 34.2427 68.8751 33.2552Z" fill="#313E79"/>
<path d="M46.6734 64.4213C46.1727 64.9221 46.1727 65.7137 46.6734 66.2144C47.1742 66.7152 47.967 66.7139 48.4677 66.2132C48.9685 65.7124 48.9673 64.9221 48.4665 64.4213C47.9658 63.9206 47.1746 63.9206 46.6734 64.4213Z" fill="#313E79"/>
<path d="M26.0703 58.145C25.0828 59.1321 25.0812 60.7428 26.0703 61.7315C27.0504 62.712 28.6682 62.7203 29.6569 61.7315C30.637 60.7511 30.6387 59.1267 29.6569 58.145C28.6694 57.1575 27.0521 57.1629 26.0703 58.145Z" fill="#313E79"/>
<path d="M21.5885 64.4198C21.0877 64.9205 21.089 65.7133 21.5885 66.2128C22.088 66.7124 22.8807 66.7136 23.3819 66.2128C23.8826 65.7121 23.8826 64.9205 23.3819 64.4198C22.8807 63.919 22.0892 63.919 21.5885 64.4198Z" fill="#313E79"/>
<path d="M37.2784 19.5747C38.7679 18.0848 38.7667 15.6829 37.2784 14.1946C35.7885 12.7051 33.3882 12.7051 31.8987 14.1946C30.4088 15.6845 30.4088 18.0848 31.8983 19.5743C33.3882 21.0642 35.7885 21.0646 37.2784 19.5747Z" fill="#313E79"/>
<path d="M11.492 39.9805C10.5116 39 8.88717 38.9987 7.90545 39.9805C6.91795 40.968 6.92373 42.5853 7.90545 43.567C8.89295 44.5545 10.5033 44.5558 11.492 43.567C12.4709 42.5853 12.4795 40.968 11.492 39.9805Z" fill="#313E79"/>
<path d="M16.8353 48.9097C15.8479 49.8972 15.8532 51.5146 16.8349 52.4963C17.8224 53.4838 19.4328 53.4855 20.4219 52.4963C21.4004 51.5146 21.409 49.8972 20.4215 48.9097C19.4414 47.9297 17.8167 47.928 16.8353 48.9097Z" fill="#313E79"/>
<path d="M32.3367 50.0847C30.8468 51.5746 30.8468 53.9753 32.3367 55.4648C33.8262 56.9543 36.2268 56.9543 37.7168 55.4644C39.2062 53.9749 39.2062 51.5746 37.7168 50.0851C36.2268 48.5952 33.8262 48.5952 32.3367 50.0847Z" fill="#313E79"/>
<path d="M50.0627 32.3593C48.5728 33.8492 48.5728 36.2494 50.0627 37.7393C51.5522 39.2288 53.9525 39.2288 55.4424 37.7389C56.9319 36.2494 56.9319 33.8492 55.4424 32.3597C53.9525 30.8698 51.5522 30.8698 50.0627 32.3593Z" fill="#313E79"/>
<path d="M46.647 46.534C48.1365 45.0445 48.1365 42.6442 46.647 41.1547C45.1571 39.6648 42.7568 39.6648 41.2673 41.1543C39.7774 42.6442 39.7774 45.0445 41.2673 46.5344C42.7568 48.0239 45.1571 48.0239 46.647 46.534Z" fill="#313E79"/>
<path d="M28.1768 28.0635C29.6663 26.574 29.6663 24.1738 28.1768 22.6843C26.6869 21.1944 24.2867 21.1943 22.7968 22.6838C21.3073 24.1737 21.3073 26.574 22.7972 28.0639C24.2867 29.5534 26.6869 29.5534 28.1768 28.0635Z" fill="#313E79"/>
<path d="M46.2071 28.5037C47.6966 27.0142 47.6954 24.6123 46.2071 23.1236C44.7172 21.6341 42.3169 21.6341 40.8274 23.1236C39.3375 24.6139 39.3375 27.0142 40.827 28.5037C42.3169 29.9932 44.7172 29.9936 46.2071 28.5037Z" fill="#313E79"/>
<path d="M63.9014 6.32636C64.1518 6.07598 64.151 5.67958 63.9014 5.43003C63.6519 5.18047 63.2555 5.17965 63.0047 5.43003C62.7543 5.68041 62.7543 6.07598 63.0047 6.32636C63.2551 6.57675 63.651 6.57675 63.9014 6.32636Z" fill="#313E79"/>
<path d="M5.54763 62.8868C5.29727 63.1372 5.29727 63.5332 5.54763 63.7835C5.79799 64.0335 6.19353 64.0339 6.44389 63.7835C6.69425 63.5332 6.69342 63.1368 6.44389 62.8868C6.19436 62.6373 5.79799 62.6364 5.54763 62.8868Z" fill="#313E79"/>
<path d="M62.866 62.7528C62.6156 63.0031 62.6156 63.3991 62.866 63.6495C63.1164 63.8998 63.512 63.8998 63.7627 63.6495C64.0127 63.3991 64.0119 63.0027 63.7623 62.7528C63.5128 62.5036 63.1164 62.5024 62.866 62.7528Z" fill="#313E79"/>
<path d="M5.98222 5.86912C5.73184 6.1195 5.73184 6.51548 5.98222 6.76545C6.2326 7.01583 6.62858 7.01626 6.87896 6.76587C7.12934 6.51549 7.12852 6.11908 6.87855 5.86912C6.629 5.61956 6.2326 5.61874 5.98222 5.86912Z" fill="#313E79"/>
</svg>
