<svg width="112" height="42" viewBox="0 0 112 42" fill="none" xmlns="http://www.w3.org/2000/svg">
<path d="M6.24611 32.7287C6.24611 33.0764 6.09078 33.3205 5.78011 33.461C5.55082 33.5646 5.21427 33.6163 4.77046 33.6163C4.58555 33.6163 4.41542 33.6126 4.26009 33.6053C4.10476 33.5979 3.95683 33.5905 3.81629 33.5831C3.68315 33.7606 3.55371 33.9418 3.42796 34.1267C3.30222 34.3042 3.20236 34.4818 3.1284 34.6593C3.32811 34.6075 3.53152 34.5705 3.73862 34.5483C3.94573 34.5187 4.19352 34.5039 4.48199 34.5039C4.88881 34.5039 5.21057 34.6223 5.44726 34.859C5.73574 35.1475 5.87997 35.6024 5.87997 36.2237C5.87997 37.0077 5.61739 37.7289 5.09222 38.3872C4.66321 38.9272 4.11955 39.3673 3.46125 39.7075C2.9065 39.996 2.4405 40.1402 2.06327 40.1402C1.57509 40.1402 1.12759 39.9479 0.720769 39.5633C0.350933 39.2157 0.166016 38.9013 0.166016 38.6202C0.166016 38.4945 0.284363 38.3022 0.521058 38.0433C0.765149 37.777 0.946368 37.6439 1.06472 37.6439C1.17567 37.6439 1.34579 37.8029 1.57509 38.1209C1.80439 38.4316 2.12984 38.5869 2.55145 38.5869C2.90649 38.5869 3.29112 38.4057 3.70534 38.0433C4.17873 37.6291 4.41542 37.1853 4.41542 36.7119C4.41542 36.5048 4.37474 36.3235 4.29338 36.1682C4.18982 35.9685 4.03079 35.8686 3.81629 35.8686C3.52782 35.8686 3.19127 35.9241 2.80664 36.0351C2.42941 36.1682 2.05587 36.2977 1.68604 36.4234C1.57509 36.4234 1.46044 36.3605 1.34209 36.2348C1.22374 36.109 1.16457 35.987 1.16457 35.8686C1.16457 35.7281 1.27552 35.4581 1.49742 35.0587C1.58618 34.896 1.70823 34.6889 1.86356 34.4374C2.06327 34.1267 2.24079 33.853 2.39612 33.6163C2.51447 33.4388 2.68459 33.1947 2.9065 32.8841C3.07662 32.6326 3.354 32.4662 3.73862 32.3848C3.97532 32.333 4.34885 32.3071 4.85923 32.3071C5.24385 32.3071 5.56931 32.3367 5.83559 32.3959C6.10927 32.4477 6.24611 32.5586 6.24611 32.7287Z" fill="black"/>
<path d="M10.644 36.6453C10.8215 36.305 10.999 35.9611 11.1766 35.6135C11.3763 35.2732 11.5723 35.0772 11.7646 35.0254C12.2084 34.8849 12.5671 34.8146 12.8408 34.8146C13.0035 34.8146 13.1034 34.8664 13.1404 34.9699C13.1774 35.0661 13.1959 35.2399 13.1959 35.4914C13.1959 35.6763 13.1441 36.0979 13.0405 36.7562C12.937 37.4146 12.8852 37.8731 12.8852 38.132C12.8852 38.2282 12.8926 38.3391 12.9074 38.4649C12.9222 38.5832 13.0257 38.7645 13.2181 39.0085C13.4178 39.2526 13.5139 39.4006 13.5065 39.4523C13.4843 39.5485 13.3734 39.6927 13.1737 39.8851C12.9444 40.107 12.7558 40.2179 12.6078 40.2179C12.4377 40.2179 12.238 40.0996 12.0087 39.8629C11.7794 39.6262 11.6463 39.4339 11.6093 39.2859C11.5797 39.1306 11.5612 38.9568 11.5538 38.7645C11.5464 38.5721 11.5427 38.4575 11.5427 38.4205C11.5427 37.8214 11.5982 37.2555 11.7091 36.723C11.428 37.2851 11.1951 37.74 11.0101 38.0877C10.6773 38.7238 10.4184 39.1713 10.2335 39.4302C10.0264 39.7186 9.81187 39.922 9.58997 40.0404C9.36807 40.1587 9.12767 40.2179 8.86879 40.2179C8.66168 40.2179 8.44718 40.1698 8.22528 40.0737C8.01077 39.9701 7.90352 39.8444 7.90352 39.6964C7.90352 39.5041 7.9442 39.2674 8.02556 38.9864C8.11432 38.6979 8.21048 38.5389 8.31403 38.5093C8.32883 38.5019 8.42499 38.5167 8.60251 38.5536C8.78742 38.5832 8.92426 38.598 9.01302 38.598C9.0648 38.598 9.12028 38.5906 9.17945 38.5758C9.37176 38.5241 9.65284 38.2282 10.0227 37.6882C10.3037 37.274 10.5109 36.9264 10.644 36.6453Z" fill="black"/>
<path d="M18.1765 35.3028C18.1765 35.6356 18.1543 35.8797 18.1099 36.0351C18.036 36.3087 17.8621 36.6231 17.5885 36.9781C17.3666 37.2962 17.0744 37.5736 16.712 37.8103C16.2682 38.0544 15.828 38.2985 15.3916 38.5426C15.4064 38.6313 15.4249 38.7016 15.4471 38.7534C15.4767 38.7977 15.5211 38.8199 15.5803 38.8199C15.8983 38.8199 16.3162 38.7497 16.834 38.6091C17.3518 38.4686 17.8695 38.3207 18.3873 38.1653C18.4835 38.1653 18.55 38.1986 18.587 38.2652C18.6314 38.3317 18.6536 38.4242 18.6536 38.5426C18.6536 38.8014 18.1913 39.1454 17.2667 39.5744C16.3421 40.0034 15.5655 40.2179 14.9367 40.2179C14.5965 40.2179 14.3117 40.0219 14.0824 39.6299C13.8901 39.297 13.794 38.9494 13.794 38.5869C13.794 37.581 14.1601 36.6268 14.8924 35.7244C15.632 34.8146 16.3976 34.3597 17.189 34.3597C17.4849 34.3597 17.7216 34.4485 17.8991 34.626C18.084 34.7961 18.1765 35.0217 18.1765 35.3028ZM16.7563 35.6467C16.638 35.6467 16.5418 35.6689 16.4679 35.7133C16.3939 35.7503 16.2792 35.8428 16.1239 35.9907C15.976 36.146 15.8133 36.4049 15.6357 36.7673C15.5396 36.9671 15.4249 37.237 15.2918 37.5773C15.5359 37.4515 15.7911 37.2814 16.0573 37.0669C16.2423 36.919 16.405 36.771 16.5455 36.6231C16.7157 36.4456 16.8044 36.3531 16.8118 36.3457C16.9228 36.2126 16.9782 36.0647 16.9782 35.9019C16.956 35.8428 16.9376 35.8021 16.9228 35.7799C16.871 35.6911 16.8155 35.6467 16.7563 35.6467Z" fill="black"/>
<path d="M26.1331 40.3178C25.8521 40.3178 25.6043 40.2512 25.3898 40.1181C25.1827 39.9775 25.0273 39.7889 24.9238 39.5522C24.8794 39.4413 24.8498 39.3192 24.835 39.1861C24.8202 39.0529 24.8128 38.9013 24.8128 38.7312C24.8128 38.6202 24.8165 38.4649 24.8239 38.2652C24.8313 38.0581 24.835 37.9175 24.835 37.8436C24.443 38.2948 24.051 38.746 23.6589 39.1972C23.008 39.8777 22.5161 40.2179 22.1833 40.2179C21.9762 40.2179 21.8246 40.1291 21.7284 39.9516C21.6618 39.8333 21.6285 39.7075 21.6285 39.5744L22.1056 37.5884C22.1278 37.5292 22.1648 37.385 22.2166 37.1557C22.2684 36.919 22.309 36.771 22.3386 36.7119C22.2868 36.7636 22.0169 37.1372 21.5287 37.8325C21.0183 38.5573 20.5782 39.1232 20.2084 39.53C19.6684 40.1217 19.2394 40.4176 18.9213 40.4176C18.7142 40.4176 18.5626 40.3363 18.4664 40.1735C18.3777 40.0108 18.3333 39.8259 18.3333 39.6188C18.4073 39.3007 18.4701 39.0455 18.5219 38.8532C18.6329 38.4316 18.7734 37.9249 18.9435 37.3332C19.0767 36.7193 19.2135 36.1016 19.3541 35.4803C19.5464 34.8294 19.8644 34.5039 20.3082 34.5039C20.4488 34.5039 20.5449 34.5409 20.5967 34.6149C20.6559 34.6815 20.6855 34.7887 20.6855 34.9367C20.6855 34.9958 20.6781 35.0772 20.6633 35.1807C20.6559 35.2769 20.6522 35.3361 20.6522 35.3583C20.6522 35.4914 20.5486 35.9648 20.3415 36.7784C20.2675 37.1557 20.1936 37.5292 20.1196 37.899C20.201 37.899 20.4599 37.6254 20.8963 37.078C21.5324 36.2792 21.9503 35.7688 22.15 35.5469C22.653 34.9921 23.0191 34.7148 23.2484 34.7148C23.3446 34.7148 23.4592 34.785 23.5924 34.9256C23.7551 35.0957 23.8365 35.2658 23.8365 35.4359C23.8143 35.6504 23.7033 36.1941 23.5036 37.0669C23.3557 37.6882 23.2743 38.0396 23.2595 38.1209C23.5554 37.7511 23.8549 37.3776 24.1582 37.0003C24.6686 36.3642 25.1013 35.8538 25.4563 35.4692C25.9297 34.9515 26.2367 34.6926 26.3772 34.6926C26.5178 34.6926 26.6324 34.7369 26.7212 34.8257C26.8173 34.9071 26.8654 35.0328 26.8654 35.2029C26.8654 35.3213 26.821 35.4877 26.7323 35.7022C26.5178 36.22 26.3994 36.5676 26.3772 36.7452C26.355 36.9153 26.3328 37.1261 26.3107 37.3776C26.2885 37.6291 26.2774 37.8436 26.2774 38.0211C26.2774 38.2208 26.2959 38.3909 26.3328 38.5315C26.3772 38.672 26.4808 38.8162 26.6435 38.9642C26.8062 39.1121 26.8876 39.2341 26.8876 39.3303C26.8876 39.4782 26.8099 39.6705 26.6546 39.9072C26.4771 40.1809 26.3033 40.3178 26.1331 40.3178Z" fill="black"/>
<path d="M91.5288 34.1159C91.5288 34.5595 91.4033 35.2922 91.1523 36.3139C90.9304 37.2013 90.7553 37.8026 90.6269 38.1178C90.4751 38.4739 90.3263 38.833 90.1803 39.1949C89.8884 39.8254 89.5849 40.3188 89.2696 40.6749C88.8318 41.1711 88.3736 41.4192 87.8949 41.4192C87.5505 41.4192 87.1827 41.2353 86.7916 40.8675C86.3654 40.4647 86.1523 40.0473 86.1523 39.6153C86.1523 39.5335 86.2574 39.4051 86.4676 39.23C86.5902 39.1307 86.6982 39.0723 86.7916 39.0548C86.8558 39.0431 86.993 39.2562 87.2031 39.6941C87.4191 40.1378 87.6993 40.3596 88.0437 40.3596C88.3064 40.3596 88.5429 40.2108 88.753 39.913C88.9106 39.6853 89.0741 39.3292 89.2434 38.8447C89.3835 38.4185 89.5236 37.9894 89.6637 37.5574L89.9089 36.778C89.5294 37.2684 89.1295 37.6362 88.7092 37.8814C88.3298 38.1032 87.9562 38.2141 87.5884 38.2141C87.3432 38.2141 87.1447 38.0974 86.993 37.8639C86.882 37.6946 86.8266 37.5428 86.8266 37.4085C86.8266 37.2917 86.8966 37.0553 87.0367 36.6992C87.1827 36.3372 87.3432 36.0161 87.5184 35.7359C87.8569 35.2105 88.3531 34.7172 89.0069 34.256C89.6024 33.8356 90.0373 33.6255 90.3117 33.6255C90.3817 33.6255 90.443 33.6722 90.4955 33.7656C90.5539 33.8531 90.5889 33.9495 90.6006 34.0546C90.7466 33.9845 90.8575 33.932 90.9334 33.8969C91.0851 33.8269 91.1785 33.7918 91.2136 33.7918C91.3362 33.7918 91.4121 33.8064 91.4412 33.8356C91.4996 33.8882 91.5288 33.9816 91.5288 34.1159ZM90.2066 34.7814C89.868 34.7814 89.4039 35.0791 88.8143 35.6746C88.2714 36.2234 88 36.5707 88 36.7167C88 36.9093 88.0613 37.0057 88.1838 37.0057C88.5224 37.0057 88.9252 36.705 89.3922 36.1037C89.7483 35.6483 90.0198 35.2076 90.2066 34.7814Z" fill="black"/>
<path d="M93.4101 37.8901C92.9898 38.1412 92.695 38.2988 92.5257 38.363C92.3623 38.4272 92.1375 38.4593 91.8515 38.4593C91.7581 38.4593 91.6647 38.4126 91.5713 38.3192C91.4779 38.2258 91.4312 38.1266 91.4312 38.0215C91.4312 37.8697 91.5129 37.464 91.6764 36.8043C91.8398 36.1387 92.0149 35.4965 92.2018 34.8777C92.5578 33.6751 92.7943 32.8986 92.911 32.5483C93.2263 31.6143 93.4481 31.1472 93.5765 31.1472C93.6933 31.1472 93.8246 31.1793 93.9706 31.2435C94.1165 31.3078 94.1895 31.3778 94.1895 31.4537C94.2011 31.553 94.0085 32.1951 93.6115 33.3803C93.3664 34.11 93.2058 34.615 93.1299 34.8952C93.0073 35.3331 92.9169 35.6454 92.8585 35.8322C92.7184 36.2876 92.5812 36.74 92.4469 37.1896C92.6571 37.0962 92.8702 36.9998 93.0862 36.9006C93.5765 36.6846 93.883 36.5766 94.0056 36.5766C94.0873 36.5766 94.172 36.6408 94.2595 36.7692C94.3529 36.8918 94.3996 36.9969 94.3996 37.0845C94.3879 37.1837 94.2303 37.3414 93.9268 37.5574C93.7867 37.6566 93.6145 37.7675 93.4101 37.8901Z" fill="black"/>
<path d="M99.832 34.291C99.5459 34.3552 99.2453 34.4311 98.9301 34.5187C98.8717 34.5362 98.5973 34.6179 98.107 34.7639C98.1595 34.8398 98.215 34.9127 98.2733 34.9828C98.3142 35.0587 98.3346 35.2105 98.3346 35.4382C98.3346 35.9869 98.1858 36.5036 97.888 36.9882C97.6545 37.3618 97.313 37.7413 96.8635 38.1266C96.6651 38.29 96.4753 38.4039 96.2944 38.4681C96.1134 38.5323 95.8682 38.5644 95.5588 38.5644C95.2494 38.5644 94.9897 38.4915 94.7795 38.3455C94.5051 38.1528 94.368 37.858 94.368 37.461C94.368 37.0524 94.4555 36.6116 94.6306 36.1387C94.7649 35.7709 94.9167 35.4644 95.086 35.2192C95.4771 34.6646 95.804 34.2793 96.0667 34.0633C96.2535 33.9057 96.4257 33.8269 96.5833 33.8269C96.6651 33.8269 96.7439 33.8619 96.8198 33.932C96.9015 33.9962 96.9423 34.075 96.9423 34.1684C96.9423 34.3377 96.8198 34.6004 96.5746 34.9565C96.3294 35.3126 96.0871 35.66 95.8478 35.9986C95.5909 36.4131 95.4625 36.7488 95.4625 37.0057C95.4625 37.1341 95.5005 37.2421 95.5763 37.3297C95.6522 37.4173 95.7661 37.461 95.9178 37.461C96.2623 37.461 96.5717 37.248 96.846 36.8218C97.097 36.4306 97.2226 36.0336 97.2226 35.6308C97.2226 35.5316 97.2021 35.4002 97.1613 35.2368C97.0679 34.8631 97.0212 34.6238 97.0212 34.5187C97.0212 34.2268 97.4327 33.9874 98.2558 33.8006C98.8804 33.6605 99.4263 33.5904 99.8933 33.5904C100.01 33.5904 100.115 33.6109 100.209 33.6517C100.308 33.6926 100.357 33.7422 100.357 33.8006C100.357 33.9232 100.296 34.0341 100.173 34.1334C100.074 34.2151 99.9604 34.2676 99.832 34.291Z" fill="black"/>
<path d="M99.6138 37.0232C99.748 37.0932 99.894 37.1662 100.052 37.2421C100.209 37.3122 100.352 37.3472 100.481 37.3472C100.848 37.3472 101.161 37.1983 101.418 36.9006C101.674 36.6029 101.803 36.2438 101.803 35.8235C101.803 35.6542 101.777 35.5345 101.724 35.4644C101.672 35.3944 101.564 35.3594 101.4 35.3594C101.266 35.3594 101.105 35.4119 100.918 35.517C100.737 35.6162 100.559 35.7534 100.384 35.9286C100.291 36.0161 100.165 36.1796 100.008 36.419C99.8735 36.6233 99.7422 36.8247 99.6138 37.0232ZM98.8782 37.3122C98.7848 37.2071 98.7381 37.1078 98.7381 37.0144C98.8257 36.7225 98.9162 36.4277 99.0096 36.13C99.2664 35.3126 99.4649 34.6938 99.605 34.2735C99.856 33.5379 100.057 33.0008 100.209 32.6622C100.297 32.3644 100.373 32.1426 100.437 31.9966C100.635 31.553 100.851 31.3311 101.085 31.3311C101.202 31.3311 101.307 31.3749 101.4 31.4625C101.493 31.55 101.54 31.6493 101.54 31.7602C101.54 31.7952 101.388 32.2127 101.085 33.0125C100.764 33.8531 100.53 34.434 100.384 34.7551C100.659 34.5216 100.933 34.3523 101.207 34.2472C101.482 34.1363 101.759 34.0808 102.039 34.0808C102.267 34.0808 102.465 34.183 102.635 34.3873C102.857 34.6559 102.967 35.0353 102.967 35.5257C102.967 35.8819 102.889 36.2613 102.731 36.6642C102.521 37.1954 102.232 37.6128 101.864 37.9164C101.385 38.3076 100.796 38.5031 100.095 38.5031C99.7801 38.5031 99.4474 38.4126 99.0971 38.2317C98.7527 38.0507 98.5805 37.8872 98.5805 37.7413C98.5805 37.6829 98.6155 37.6099 98.6856 37.5223C98.779 37.4231 98.8432 37.353 98.8782 37.3122Z" fill="black"/>
<path d="M109.441 36.6116C109.441 36.8159 109.356 37.0028 109.187 37.1721C108.825 37.5107 108.314 37.823 107.654 38.1091C107.111 38.3426 106.764 38.4593 106.612 38.4593C106.449 38.4593 106.315 38.398 106.21 38.2754C106.104 38.147 106.052 38.0069 106.052 37.8551C106.052 37.68 106.052 37.499 106.052 37.3122C106.058 37.1254 106.081 36.9239 106.122 36.7079C105.655 37.1166 105.398 37.3414 105.351 37.3822C104.663 37.9544 104.14 38.2404 103.784 38.2404C103.568 38.2404 103.378 38.1645 103.215 38.0127C103.051 37.8609 102.97 37.7004 102.97 37.5311C102.97 37.2859 103.177 36.8451 103.591 36.2088C104.006 35.5724 104.464 35.0091 104.966 34.5187C105.55 33.9466 106.023 33.6605 106.385 33.6605C106.455 33.6605 106.536 33.7072 106.63 33.8006C106.723 33.8882 106.796 33.9845 106.849 34.0896C106.919 33.9845 106.968 33.9057 106.998 33.8531C107.062 33.7539 107.138 33.7043 107.225 33.7043C107.325 33.7043 107.444 33.7481 107.584 33.8356C107.73 33.9174 107.803 34.0166 107.803 34.1334C107.803 34.3377 107.751 34.6267 107.646 35.0003C107.541 35.3739 107.435 35.7447 107.33 36.1125C107.284 36.2934 107.246 36.4627 107.217 36.6204C107.187 36.7722 107.173 36.8977 107.173 36.9969C107.173 37.102 107.193 37.1545 107.234 37.1545C107.322 37.1545 107.608 37.0144 108.092 36.7342C108.583 36.4481 108.912 36.3051 109.082 36.3051C109.321 36.3051 109.441 36.4073 109.441 36.6116ZM105.754 35.7884C105.778 35.7417 105.789 35.6775 105.789 35.5958C105.789 35.4498 105.745 35.3769 105.658 35.3769C105.43 35.3769 105.191 35.5228 104.94 35.8147C104.759 36.0249 104.508 36.4014 104.187 36.9444C104.683 36.7167 105.06 36.5036 105.316 36.3051C105.521 36.1475 105.667 35.9753 105.754 35.7884Z" fill="black"/>
<path d="M111.009 37.8901C110.588 38.1412 110.293 38.2988 110.124 38.363C109.961 38.4272 109.736 38.4593 109.45 38.4593C109.357 38.4593 109.263 38.4126 109.17 38.3192C109.076 38.2258 109.03 38.1266 109.03 38.0215C109.03 37.8697 109.111 37.464 109.275 36.8043C109.438 36.1387 109.613 35.4965 109.8 34.8777C110.156 33.6751 110.393 32.8986 110.509 32.5483C110.825 31.6143 111.047 31.1472 111.175 31.1472C111.292 31.1472 111.423 31.1793 111.569 31.2435C111.715 31.3078 111.788 31.3778 111.788 31.4537C111.8 31.553 111.607 32.1951 111.21 33.3803C110.965 34.11 110.804 34.615 110.728 34.8952C110.606 35.3331 110.515 35.6454 110.457 35.8322C110.317 36.2876 110.18 36.74 110.045 37.1896C110.256 37.0962 110.469 36.9998 110.685 36.9006C111.175 36.6846 111.481 36.5766 111.604 36.5766C111.686 36.5766 111.77 36.6408 111.858 36.7692C111.951 36.8918 111.998 36.9969 111.998 37.0845C111.986 37.1837 111.829 37.3414 111.525 37.5574C111.385 37.6566 111.213 37.7675 111.009 37.8901Z" fill="black"/>
<path fill-rule="evenodd" clip-rule="evenodd" d="M50.0976 23.3872L45.9568 32.0048L39.6773 26.0974C39.2244 25.4311 38.2785 25.342 37.7097 25.912L33.2996 31.4913L28.2248 22.8562C27.7303 22.3211 26.891 22.3049 26.3764 22.8207L22.7319 24.9737L21.3939 23.6329C20.8929 23.1309 20.0806 23.1309 19.5796 23.6329L16.6208 26.5979H1.20276C0.538494 26.5979 0 27.1375 0 27.8032C0 28.4688 0.538494 29.0084 1.20276 29.0084H17.0858C17.426 29.0084 17.7524 28.873 17.993 28.6319L20.4867 26.1329L21.8247 27.4737C22.3257 27.9758 23.138 27.9758 23.639 27.4737L27.2525 25.3517L32.3273 33.9868C32.8218 34.5219 33.6611 34.5381 34.1757 34.0223L38.4521 28.5771L45.4997 35.5557C46.0587 36.3781 47.298 36.2799 47.7209 35.3796L52.8449 22.0352C50.8077 22.3938 50.0976 23.3872 50.0976 23.3872Z" fill="black"/>
<path d="M71.863 27.915L73.3901 31.4935C73.7059 32.3834 74.8395 32.6396 75.506 31.9717L79.0561 28.4142L82.6392 32.0048C83.1402 32.5069 83.9525 32.5069 84.4535 32.0048L91.1237 25.3206L93.3368 27.5384C93.5774 27.7795 93.9037 27.915 94.244 27.915L110.797 27.915C111.462 27.915 112 27.3754 112 26.7097C112 26.044 111.462 25.5044 110.797 25.5044L94.709 25.5044L92.0309 22.8207C91.5299 22.3186 90.7175 22.3186 90.2165 22.8207L83.5463 29.5049L79.9633 25.9142C79.4623 25.4122 78.6499 25.4122 78.1489 25.9142L75.0612 29.0084L73.3666 24.2188L71.863 27.915Z" fill="black"/>
<path d="M51.6255 18.2626C51.6696 18.168 51.7465 18.0925 51.842 18.0502L56.7659 15.8681C57.019 15.756 57.4472 15.825 57.5011 16.0965C57.5011 16.0965 57.5653 16.843 57.6661 17.3109C57.7694 17.7905 58.027 18.5142 58.027 18.5142C58.0663 18.7119 57.7678 18.9216 57.5838 19.004L50.6755 22.0951C50.3104 22.2585 49.9384 21.8807 50.1075 21.5182L51.6255 18.2626Z" fill="#F32023"/>
<path d="M53.7391 13.5479C53.7833 13.4533 53.8602 13.3778 53.9557 13.3355L56.0968 12.3867C56.3499 12.2745 56.7454 12.3467 56.7993 12.6182C56.7993 12.6182 57.0183 13.3162 57.1147 13.7468C57.2255 14.2417 57.2342 14.9589 57.2342 14.9589C57.2735 15.1563 57.099 15.4403 56.9155 15.5228L52.7913 17.3772C52.4261 17.5414 52.0533 17.1635 52.2225 16.8006L53.7391 13.5479Z" fill="#444E9A"/>
<path d="M55.3935 9.90321C55.5699 9.52469 55.9616 9.65796 56.043 10.0676L56.3575 10.7305L56.5235 11.585C56.5626 11.7816 56.4614 11.9791 56.2791 12.0623L54.9415 12.6727C54.5761 12.8394 54.2008 12.461 54.3705 12.097L55.3935 9.90321Z" fill="#F2F2F2"/>
<path d="M30.3314 4.89333C30.3314 5.73673 29.9188 6.31756 29.0935 6.63583C28.5063 6.85861 27.5699 6.97001 26.2843 6.97001C25.4749 6.97001 24.5544 7.04162 23.5228 7.18484C22.9197 7.28032 22.3166 7.3758 21.7135 7.47128C21.3485 8.68068 20.9914 9.89009 20.6422 11.0995C20.8327 11.0995 21.5627 11.012 22.8324 10.8369C24.118 10.646 24.9829 10.5505 25.4273 10.5505C25.8558 10.5505 26.205 10.5823 26.4748 10.646C26.7446 10.6937 26.8795 10.9245 26.8795 11.3382C26.8795 12.4044 25.6812 13.1841 23.2847 13.6774C22.5547 13.8366 21.4199 13.9957 19.8804 14.1548L18.7139 17.5444C19.1266 17.433 20.1026 17.25 21.6421 16.9954C23.1816 16.7248 24.1021 16.5896 24.4036 16.5896C25.2289 16.5896 25.7765 16.6612 26.0463 16.8044C26.4272 17.0113 26.6176 17.4409 26.6176 18.0934C26.6176 18.8095 26.4272 19.3267 26.0463 19.6449C25.7606 19.8836 25.3797 20.003 24.9036 20.003C24.6814 20.003 24.4909 19.995 24.3322 19.9791C24.1894 19.9473 24.0703 19.9154 23.9751 19.8836C23.0387 19.8836 21.8802 20.0189 20.4994 20.2894C19.1345 20.5599 17.7855 20.8384 16.4523 21.1249C16.0873 21.1249 15.7698 20.9896 15.5 20.7191C15.2461 20.4645 15.1191 20.1939 15.1191 19.9075C15.1509 19.6847 15.627 18.0218 16.5475 14.9187C17.1982 12.7386 17.595 11.3859 17.7378 10.8608C17.8966 10.3357 18.0791 9.81848 18.2854 9.30926C18.5076 8.78412 18.7615 8.26694 19.0472 7.75771C18.698 7.75771 18.4203 7.69406 18.214 7.56675C17.9124 7.39171 17.7934 7.12914 17.8569 6.77905C17.9838 6.09478 18.9202 5.50599 20.666 5.01268C22.4118 4.51937 24.5623 4.27271 27.1176 4.27271C27.7207 4.27271 28.3317 4.27271 28.9507 4.27271C29.8712 4.30454 30.3314 4.51141 30.3314 4.89333Z" fill="black"/>
<path d="M32.6031 9.78666C33.7299 8.72047 34.6901 7.75771 35.4837 6.8984C36.674 5.62534 37.285 4.88537 37.3168 4.6785C37.3485 4.45571 37.3644 4.26475 37.3644 4.10562C37.3644 3.86692 37.2771 3.74757 37.1025 3.74757C36.4677 3.74757 35.6424 4.54324 34.6266 6.13456C34.2457 6.73927 33.5712 7.95663 32.6031 9.78666ZM35.9836 10.7892C36.4439 10.7892 36.8406 10.9881 37.1739 11.3859C37.5231 11.7679 37.6977 12.285 37.6977 12.9375C37.6977 14.3697 37.3326 15.6427 36.6026 16.7567C36.1106 17.5205 35.2456 18.4276 34.0077 19.4778C33.4839 19.9075 32.9999 20.2019 32.5555 20.361C32.127 20.5201 31.5001 20.5997 30.6748 20.5997C29.8971 20.5997 29.2305 20.4326 28.675 20.0984C27.9608 19.6688 27.6037 19.0561 27.6037 18.2605C27.6037 16.6851 28.0878 14.5845 29.0559 11.9588C30.0399 9.31721 31.3096 6.75518 32.865 4.27271C33.6902 2.96782 34.6742 1.93346 35.8169 1.16963C36.9597 0.389875 38.1182 0 39.2927 0C40.118 0 40.6814 0.270525 40.9829 0.811576C41.1893 1.19349 41.2924 1.78228 41.2924 2.57795C41.2924 3.29404 40.5782 4.51937 39.1498 6.25391C38.0706 7.5588 36.5946 9.15012 34.7219 11.0279C33.4839 12.2373 32.2539 13.4467 31.0319 14.6561C31.0001 14.7834 30.8652 15.1176 30.6272 15.6586C30.4684 16.0406 30.3891 16.3509 30.3891 16.5896C30.3891 16.9078 30.4843 17.1863 30.6748 17.425C30.8811 17.6478 31.1747 17.7592 31.5556 17.7592C32.4602 17.7592 33.2459 17.2738 33.9124 16.3031C34.5155 15.412 34.8171 14.4572 34.8171 13.4387C34.8171 13.1523 34.7853 12.9136 34.7219 12.7227C34.5631 12.2453 34.4838 11.9509 34.4838 11.8395C34.4838 11.5053 34.6346 11.2507 34.9361 11.0756C35.2535 10.8847 35.6027 10.7892 35.9836 10.7892Z" fill="black"/>
<path d="M50.2691 12.3407C50.2691 13.9002 49.5152 15.6586 48.0075 17.616C46.4204 19.6847 44.9127 20.7191 43.4843 20.7191C43.1827 20.7191 42.8256 20.6315 42.413 20.4565C42.0162 20.2814 41.6433 20.0746 41.2941 19.8359C41.1354 20.4088 40.9529 21.1885 40.7465 22.1751C40.5561 23.1777 40.4371 23.8858 40.3895 24.2995C40.3418 24.7133 40.2863 25.31 40.2228 26.0898C40.1593 26.8855 40.1038 27.4663 40.0562 27.8323C40.0244 28.2142 39.9054 28.4927 39.6991 28.6677C39.4927 28.8428 39.0801 28.9303 38.4611 28.9303C37.8898 28.9303 37.5009 28.7234 37.2946 28.3097C37.1518 28.0073 37.0804 27.5379 37.0804 26.9014C37.0804 26.3603 37.4216 24.7053 38.104 21.9364C39.1198 17.799 39.6673 15.5632 39.7467 15.229C39.9213 14.4333 40.1593 13.5024 40.4609 12.4362C40.7624 11.37 41.0481 10.4232 41.3179 9.5957C41.5242 8.97508 41.8178 8.56929 42.1987 8.37833C42.4368 8.26694 42.8098 8.21124 43.3176 8.21124C43.6509 8.21124 43.8731 8.28285 43.9842 8.42607C44.0953 8.56929 44.1509 8.79208 44.1509 9.09443C44.1509 9.39678 44.1112 9.73096 44.0318 10.097C44.6825 9.54 45.2301 9.1183 45.6745 8.83186C46.4522 8.33855 47.0949 8.09189 47.6028 8.09189C48.5709 8.09189 49.2534 8.39424 49.6501 8.99895C50.0628 9.60365 50.2691 10.7176 50.2691 12.3407ZM47.1505 12.7227C47.1505 12.0702 47.1267 11.6565 47.0791 11.4814C46.9838 11.1632 46.7854 11.004 46.4839 11.004C45.5316 11.004 44.754 11.4098 44.1509 12.2214C43.77 12.7306 43.3097 13.6615 42.7701 15.0142C42.5955 15.4279 42.4051 15.9451 42.1987 16.5657C42.0083 17.1704 41.8813 17.5842 41.8178 17.8069C41.8972 17.6478 42.0162 17.5125 42.1749 17.4011C42.3495 17.2738 42.532 17.2102 42.7225 17.2102C42.8812 17.2261 43.0637 17.3375 43.27 17.5444C43.4763 17.7512 43.7144 17.8547 43.9842 17.8547C44.6349 17.8547 45.3253 17.2181 46.0554 15.9451C46.7854 14.6561 47.1505 13.582 47.1505 12.7227Z" fill="black"/>
<path d="M67.0301 17.5444C66.6175 17.4966 66.3477 17.3773 66.2207 17.1863C66.0937 16.9794 66.0303 16.6691 66.0303 16.2554C66.0303 15.778 66.0858 15.4279 66.1969 15.2051C66.308 14.9823 66.554 14.8232 66.9349 14.7277C69.4108 14.0753 70.6487 13.2319 70.6487 12.1975C70.6487 11.8315 70.5773 11.5053 70.4344 11.2188C70.2281 10.8051 69.9266 10.5982 69.5298 10.5982C68.8315 10.5982 68.1887 10.7812 67.6015 11.1472C66.9984 11.561 66.3953 11.9668 65.7922 12.3646C65.5541 12.3646 65.3795 12.3089 65.2684 12.1975C65.1097 12.0384 65.0304 11.7838 65.0304 11.4337C65.0304 10.463 65.5541 9.60365 66.6016 8.85573C67.6491 8.10781 68.8156 7.73384 70.1011 7.73384C71.3391 7.73384 72.2993 8.15555 72.9817 8.99895C73.5531 9.71504 73.8388 10.5425 73.8388 11.4814C73.8388 12.8977 73.2436 14.0196 72.0533 14.8471C71.228 15.4199 70.1884 15.8098 68.9346 16.0167C70.3471 16.3986 71.3311 17.0033 71.8866 17.8308C72.3628 18.5469 72.6008 19.4858 72.6008 20.6475C72.6008 23.1299 71.7041 25.4453 69.9107 27.5936C68.1173 29.7419 66.2207 30.816 64.221 30.816C63.0624 30.816 61.999 30.267 61.0309 29.169C60.0628 28.071 59.5787 26.8855 59.5787 25.6124C59.5787 25.4214 59.8247 25.0793 60.3167 24.586C60.7928 24.1086 61.1976 23.8699 61.5308 23.8699C61.8324 23.8699 62.245 24.5542 62.7688 25.9227C63.2925 27.2912 63.9512 27.9755 64.7447 27.9755C65.1097 27.9755 65.6573 27.7129 66.3873 27.1878C67.3079 26.5194 68.0459 25.7158 68.6013 24.7769C69.3314 23.5357 69.6964 22.1592 69.6964 20.6475C69.6964 19.5654 69.4346 18.7776 68.9108 18.2843C68.514 17.9024 67.8871 17.6558 67.0301 17.5444Z" fill="black"/>
<path d="M86.9233 19.0243C86.9233 19.3426 86.6853 19.7324 86.2092 20.1939C85.733 20.6554 85.3124 20.8862 84.9474 20.8862C84.4713 20.8862 84.0348 20.735 83.6381 20.4326C83.2572 20.1303 82.9397 19.7563 82.6858 19.3107C82.4477 18.8493 82.2732 18.4116 82.1621 17.9979C82.051 17.5842 81.9637 17.0192 81.9002 16.3031C80.5829 17.6876 79.9163 18.3878 79.9005 18.4037C79.1069 19.1675 78.361 19.7484 77.6627 20.1462C76.7898 20.6395 75.9169 20.8862 75.0439 20.8862C74.6789 20.8862 74.3536 20.7588 74.0679 20.5042C73.7981 20.2337 73.6791 19.9314 73.7108 19.5972C73.7108 19.0561 73.9488 17.9899 74.425 16.3986C74.7741 15.221 74.9884 14.497 75.0678 14.2265C75.6232 12.4283 76.1708 11.0756 76.7104 10.1686C77.3928 9.03873 78.1388 8.47381 78.9482 8.47381C79.1545 8.47381 79.345 8.56929 79.5196 8.76025C79.6941 8.95121 79.7814 9.1183 79.7814 9.26152C79.7338 9.67526 79.591 10.1686 79.3529 10.7415C79.1148 11.2984 78.8847 11.8236 78.6625 12.3169C78.4562 12.7943 78.2102 13.4308 77.9245 14.2265C77.6388 15.0221 77.4801 15.5632 77.4484 15.8496V16.2077C77.4484 16.5259 77.5992 16.6851 77.9007 16.6851C78.361 16.6851 79.1783 16.0883 80.3528 14.8948C80.9717 14.2424 81.5986 13.5899 82.2335 12.9375C82.7255 11.4575 83.3206 10.3834 84.019 9.71504C84.5268 9.22173 85.0585 8.97508 85.614 8.97508C85.9155 8.97508 86.1377 9.07851 86.2806 9.28539C86.4234 9.49226 86.4948 9.76278 86.4948 10.097C86.4948 10.3516 86.1933 11.3223 85.5902 13.0091C85.2886 13.8525 85.1379 14.5527 85.1379 15.1096C85.122 15.3006 85.1141 15.4279 85.1141 15.4916C85.1141 16.0963 85.3045 16.7089 85.6854 17.3295C86.0981 17.9024 86.5107 18.4673 86.9233 19.0243Z" fill="black"/>
<path d="M90.1225 11.6724C90.2654 11.0199 90.797 10.3914 91.7175 9.78666C92.4793 9.29334 93.2729 8.9353 94.0982 8.71251C94.7806 8.50564 95.3758 8.37037 95.8837 8.30672C96.4074 8.22715 96.9232 8.18737 97.4311 8.18737C97.685 8.18737 97.9469 8.20329 98.2167 8.23511C98.5024 8.25103 98.8039 8.26694 99.1213 8.28285C99.3594 8.28285 99.5657 8.43403 99.7403 8.73638C99.9149 9.02282 99.9784 9.30926 99.9308 9.5957C99.9149 9.81848 99.8276 10.0094 99.6689 10.1686C99.5102 10.3118 99.3356 10.4152 99.1451 10.4789C98.8912 11.2905 98.6135 12.3646 98.3119 13.7013C98.0262 15.038 97.8596 15.9053 97.812 16.3031C97.7802 16.701 97.7644 16.9317 97.7644 16.9954C97.7644 17.059 97.7644 17.1068 97.7644 17.1386C97.7644 17.4568 97.8596 17.7751 98.05 18.0934C98.2564 18.4116 98.3595 18.722 98.3595 19.0243C98.3595 19.2312 98.0262 19.5574 97.3597 20.003C96.6931 20.4326 96.1535 20.6475 95.7408 20.6475C95.3441 20.6475 95.0584 20.4247 94.8838 19.9791C94.7092 19.5335 94.6219 19.0243 94.6219 18.4514C94.6219 17.8149 94.741 17.0192 94.979 16.0644C94.5029 16.6532 93.9474 17.2818 93.3126 17.9502C92.773 18.523 92.2889 19.0004 91.8604 19.3824C91.3049 19.8597 90.8288 20.1939 90.432 20.3849C90.0511 20.5599 89.5908 20.6475 89.0512 20.6475C88.5434 20.6475 87.972 20.4247 87.3372 19.9791C86.7182 19.5335 86.4484 19.1437 86.5277 18.8095C86.623 18.4116 86.8293 17.9899 87.1467 17.5444C87.48 17.0829 87.7657 16.8521 88.0037 16.8521C88.1466 16.8521 88.3529 16.9158 88.6227 17.0431C89.2258 17.3295 89.6067 17.4728 89.7654 17.4728C90.1304 17.4728 90.5828 17.2738 91.1224 16.876C91.535 16.5737 92.0032 16.152 92.527 15.6109C92.0032 15.5154 91.4954 15.229 91.0033 14.7516C90.3526 14.1151 90.0273 13.3592 90.0273 12.484C90.0273 12.3566 90.0352 12.2134 90.0511 12.0543C90.0828 11.8952 90.1066 11.7679 90.1225 11.6724ZM96.5741 10.646C96.4471 10.646 96.2566 10.6301 96.0027 10.5982C95.7488 10.5505 95.5821 10.5266 95.5028 10.5266C95.3599 10.5266 95.1853 10.5425 94.979 10.5744C94.7727 10.6062 94.3759 10.7971 93.7887 11.1472C93.2173 11.4973 92.9079 11.8076 92.8603 12.0782C92.8126 12.3487 92.7888 12.5635 92.7888 12.7227C92.7888 12.9454 92.8364 13.1046 92.9317 13.2C93.0904 13.2955 93.2094 13.3751 93.2888 13.4387C93.5268 13.6297 93.9236 13.7252 94.4791 13.7252C94.6537 13.7252 94.8521 13.7172 95.0742 13.7013C95.2964 13.6695 95.471 13.6456 95.598 13.6297L96.5741 10.646Z" fill="black"/>
<path d="M62.0342 14.2285C62.5541 13.8312 62.7412 13.3218 62.5955 12.7005C62.5585 12.4338 62.4058 12.273 62.1374 12.2179C61.869 12.1629 61.529 12.1836 61.1174 12.2802L60.1266 12.6306C60.1279 12.4729 60.098 12.2636 60.0368 12.0026C59.993 11.8162 59.9076 11.5609 59.7805 11.2367C59.6533 10.9126 59.5635 10.6386 59.511 10.4149L59.3536 9.74383C59.202 9.0976 59.0322 8.64577 58.8441 8.38833C58.5784 8.01798 58.1852 7.89387 57.6646 8.01599C57.265 8.10971 56.9023 8.49636 56.5763 9.17595L57.3166 12.1687C57.4296 12.3782 57.5388 12.6804 57.6442 13.0752C57.7467 13.4576 57.8261 13.7143 57.8823 13.8454L58.3445 15.979C58.5048 16.6625 58.6253 17.4209 58.7058 18.2543C58.8585 19.8312 58.9378 20.632 58.9436 20.6569C59.0515 21.1167 59.1726 21.4423 59.3069 21.6337C59.5396 21.9724 59.886 22.0879 60.3461 21.9799C61.121 21.7982 61.1306 21.4426 61.4393 20.3082C61.748 19.1737 61.3721 18.1099 61.0828 16.8707C60.9111 16.1349 60.6957 14.9751 60.6957 14.9751L62.0342 14.2285Z" fill="black"/>
</svg>
