<svg width="198" height="47" viewBox="0 0 198 47" fill="none" xmlns="http://www.w3.org/2000/svg">
<path d="M197.064 46.78H0V35.6201H197.064V46.78Z" fill="#F6A508"/>
<path d="M0.097168 20.1154V0.555664H8.6464C10.7427 0.555664 12.419 1.115 13.6206 2.20438C14.8502 3.29376 15.464 4.69127 15.464 6.45135C15.464 8.21144 14.8502 9.6374 13.6206 10.7272C12.419 11.8162 10.7427 12.3751 8.6464 12.3751H4.12058V20.1154H0.097168ZM4.12058 8.93824H8.36755C10.2955 8.93824 11.4406 8.07285 11.4406 6.50787C11.4406 4.94289 10.2955 4.07707 8.36755 4.07707H4.12058V8.93824Z" fill="#F6A508"/>
<path d="M18.9888 7.93232C20.4424 6.50759 22.2862 5.80884 24.5496 5.80884C26.8133 5.80884 28.6575 6.50759 30.1107 7.93232C31.5631 9.35706 32.2895 11.0899 32.2895 13.1293C32.2895 15.2255 31.5631 16.9572 30.1107 18.3835C28.6575 19.7798 26.8133 20.4786 24.5496 20.4786C22.2862 20.4786 20.4424 19.7798 18.9888 18.3835C17.5364 16.9572 16.8101 15.2255 16.8101 13.1293C16.8101 11.0619 17.5364 9.3286 18.9888 7.93232ZM24.5496 17.0421C25.667 17.0421 26.5897 16.6787 27.3161 15.9247C28.0425 15.169 28.4063 14.2467 28.4063 13.1293C28.4063 12.011 28.0425 11.0899 27.3161 10.3631C26.5897 9.6091 25.667 9.24528 24.5496 9.24528C23.4317 9.24528 22.5102 9.6091 21.7838 10.3631C21.057 11.0899 20.6945 12.011 20.6945 13.1293C20.6945 14.2467 21.057 15.169 21.7838 15.9247C22.5102 16.6787 23.4317 17.0421 24.5496 17.0421Z" fill="#F6A508"/>
<path d="M37.2128 18.4669C35.7324 17.0975 34.9775 15.3093 34.9775 13.1021C34.9775 10.8937 35.7324 9.13357 37.2128 7.82103C38.7217 6.47962 40.5102 5.80933 42.6053 5.80933C44.1426 5.80933 45.5112 6.11581 46.7409 6.73124V10.0839C45.5397 9.52543 44.3385 9.24535 43.1922 9.24535C41.963 9.24535 40.9293 9.60875 40.0912 10.3364C39.2806 11.0339 38.8619 11.9843 38.8619 13.1289C38.8619 14.2752 39.2806 15.226 40.1188 15.9512C40.9574 16.6784 41.9911 17.0422 43.1922 17.0422C44.6174 17.0422 45.8751 16.7341 46.9644 16.0914V19.4445C45.6515 20.1437 44.1983 20.4791 42.5504 20.4791C40.4818 20.4791 38.6936 19.8083 37.2128 18.4669Z" fill="#F6A508"/>
<path d="M51.02 20.1154V6.17249H54.9032L58.955 11.369L63.0346 6.17249H66.9185V20.1154H63.2024V11.5088L59.7375 15.84H58.173L54.7357 11.5088V20.1154H51.02Z" fill="#F6A508"/>
<path d="M72.5951 7.93232C74.0479 6.50759 75.8921 5.80884 78.1554 5.80884C80.4188 5.80884 82.263 6.50759 83.7162 7.93232C85.169 9.35706 85.8954 11.0899 85.8954 13.1293C85.8954 15.2255 85.169 16.9572 83.7162 18.3835C82.263 19.7798 80.4188 20.4786 78.1554 20.4786C75.8921 20.4786 74.0479 19.7798 72.5951 18.3835C71.1419 16.9572 70.4155 15.2255 70.4155 13.1293C70.4155 11.0619 71.1419 9.3286 72.5951 7.93232ZM78.1554 17.0421C79.2729 17.0421 80.1952 16.6787 80.9216 15.9247C81.648 15.169 82.0118 14.2467 82.0118 13.1293C82.0118 12.011 81.648 11.0899 80.9216 10.3631C80.1952 9.6091 79.2729 9.24528 78.1554 9.24528C77.0376 9.24528 76.1157 9.6091 75.3893 10.3631C74.6629 11.0899 74.2999 12.011 74.2999 13.1293C74.2999 14.2467 74.6629 15.169 75.3893 15.9247C76.1157 16.6787 77.0376 17.0421 78.1554 17.0421Z" fill="#F6A508"/>
<path d="M94.6743 9.46909L94.6194 11.4255C94.5349 13.3523 94.4507 14.6388 93.976 16.3152C93.3057 18.6622 91.9643 20.1434 89.1977 20.2272C88.5266 20.2272 88.025 20.1435 87.7173 19.9752V16.7623C87.9404 16.8456 88.2201 16.8741 88.5266 16.8741C89.4493 16.8741 90.0367 16.3436 90.3436 15.0859C90.6789 13.7726 90.7627 12.5982 90.7907 10.28L90.8736 6.17249H102.918V20.1154H98.9778V9.46909H94.6743Z" fill="#F6A508"/>
<path d="M108.733 7.93232C110.187 6.50759 112.031 5.80884 114.294 5.80884C116.558 5.80884 118.401 6.50759 119.854 7.93232C121.307 9.35706 122.034 11.0899 122.034 13.1293C122.034 15.2255 121.307 16.9572 119.854 18.3835C118.401 19.7798 116.558 20.4786 114.294 20.4786C112.031 20.4786 110.187 19.7798 108.733 18.3835C107.281 16.9572 106.554 15.2255 106.554 13.1293C106.554 11.0619 107.281 9.3286 108.733 7.93232ZM114.294 17.0421C115.412 17.0421 116.334 16.6787 117.06 15.9247C117.787 15.169 118.15 14.2467 118.15 13.1293C118.15 12.011 117.787 11.0899 117.06 10.3631C116.334 9.6091 115.412 9.24528 114.294 9.24528C113.176 9.24528 112.254 9.6091 111.528 10.3631C110.801 11.0899 110.438 12.011 110.438 13.1293C110.438 14.2467 110.801 15.169 111.528 15.9247C112.254 16.6787 113.176 17.0421 114.294 17.0421Z" fill="#F6A508"/>
<path d="M123.938 23.6632V16.8188H125.727C126.789 15.1692 127.349 12.5433 127.403 8.88207L127.46 6.17285H139.196V16.8188H141.486V23.6632H137.77V20.1149H127.71V23.6632H123.938ZM135.339 16.8188V9.46864H130.98C130.98 12.375 130.561 14.8339 129.75 16.8188H135.339Z" fill="#F6A508"/>
<path d="M146.214 18.4669C144.732 17.1259 143.978 15.3373 143.978 13.1289C143.978 11.0619 144.648 9.32901 145.99 7.93274C147.331 6.50759 149.091 5.80884 151.243 5.80884C153.282 5.80884 154.875 6.53565 156.076 7.96079C157.279 9.38511 157.892 11.1176 157.892 13.1858V14.2199H147.89C148.309 16.1198 150.097 17.1259 152.556 17.1259C154.121 17.1259 155.602 16.7055 157.027 15.8958V19.0542C155.769 20.003 154.009 20.4786 151.717 20.4786C149.538 20.4786 147.693 19.8083 146.214 18.4669ZM154.009 11.7041C153.926 10.1676 152.835 8.90993 151.074 8.90993C149.286 8.90993 148.085 10.0558 147.89 11.7041H154.009Z" fill="#F6A508"/>
<path d="M159.35 20.1154L165.357 12.682L159.963 6.17249H164.408L168.654 11.4255V6.17249H172.538V11.4255L176.757 6.17249H181.2L175.807 12.682L181.843 20.1154H177.148L172.538 14.1632V20.1154H168.654V14.1632L164.016 20.1154H159.35Z" fill="#F6A508"/>
<path d="M184.837 20.1149V6.17285H188.778V10.2515H192.131C195.624 10.2515 197.887 12.1799 197.887 15.1692C197.887 16.5952 197.412 17.7679 196.435 18.7174C195.455 19.6398 194.087 20.1149 192.326 20.1149H184.837ZM188.778 17.0695H191.516C193.053 17.0695 193.947 16.3716 193.947 15.1407C193.947 13.9128 193.053 13.1851 191.516 13.1851H188.778V17.0695Z" fill="#F6A508"/>
</svg>
